<?xml version="1.0" standalone="no"?>
<!DOCTYPE svg PUBLIC "-//W3C//DTD SVG 1.1//EN" "http://www.w3.org/Graphics/SVG/1.1/DTD/svg11.dtd" >
<svg>
<metadata>
Created by FontForge 20110222 at Sun Jul 20 20:11:47 2014
 By Orthosie Webhosting
Copyright (c) 2008 by Prinya R. nont. All rights reserved.
</metadata>
<defs>
<font id="DBHelvethaicaX-58CondIt" horiz-adv-x="0" >
  <font-face 
    font-family="DB Helvethaica X 58 CondIt"
    font-weight="400"
    font-style="italic"
    font-stretch="condensed"
    units-per-em="4096"
    panose-1="2 0 5 6 9 0 0 2 0 4"
    ascent="3276"
    descent="-820"
    x-height="1548"
    cap-height="2089"
    bbox="-1356 -1380 3752 3270"
    underline-thickness="82"
    underline-position="-463"
    unicode-range="U+0020-F882"
  />
<missing-glyph horiz-adv-x="1212" 
d="M1233 1171v-41h16q25 0 25 29l-4 6t-21 6h-16zM1241 1126h-8v-41h-12v103h28q37 0 37 -29q0 -24 -8 -28.5t-25 -4.5l33 -41h-12zM1249 1073q37 0 51.5 20.5t14.5 36.5q0 33 -16.5 51.5t-49.5 18.5q-28 0 -46.5 -18.5t-18.5 -51.5q0 -20 14 -38.5t51 -18.5zM1249 1208
q37 0 55.5 -22.5t18.5 -55.5q0 -20 -18.5 -42.5t-55.5 -22.5t-57.5 22.5t-20.5 42.5q0 33 20.5 55.5t57.5 22.5zM586 926q45 -4 108.5 -12.5t125 -20.5t116.5 -26.5t80 -35.5q-58 115 -182.5 178.5t-251.5 63.5q-99 0 -191 -39t-149 -116q53 4 106 6t107 2h67h64zM1098 1159
v-418q-144 45 -326 74t-379 29q-143 0 -278 -13q16 66 55 125.5t98.5 104.5t137 71.5t172.5 26.5q90 0 163.5 -20.5t127 -49t92 -65.5t55.5 -61q0 -5 0 18v55.5v65.5v57h82zM446 373q0 24 -16 34.5t-33 10.5q-24 0 -38.5 -10.5t-14.5 -34.5q0 -25 14.5 -35t38.5 -10
q17 0 33 10t16 35zM90 410q0 61 26.5 116.5t71.5 90t98.5 53t114.5 18.5q58 0 113 -16.5t96 -49t65.5 -81.5t24.5 -123v-340h316v594h82v-668h-557v74h86v348q0 94 -65.5 137t-155.5 43q-91 0 -162.5 -49t-71.5 -139v-312l172 173q-12 4 -36.5 26.5t-24.5 67.5
q0 53 30.5 83.5t87.5 30.5q50 0 82.5 -34.5t32.5 -79.5q0 -41 -18.5 -63.5t-30.5 -30.5q-4 -13 -49 -52t-94 -92q-66 -57 -140 -131h-94v406z" />
    <glyph glyph-name="dochadaphinthuthai" unicode="&#xe0e;&#xe3a;" horiz-adv-x="1610" 
d="M1466 1274q15 75 -0.5 135t-58 102t-110 64t-154.5 22q-75 0 -146 -14t-131.5 -38.5t-108.5 -59t-77 -76.5q9 -12 16.5 -35t11.5 -51.5t3.5 -61.5t-6.5 -65l-254 -1196h-402l41 197h168l213 1011q8 37 8.5 70.5t-7 60t-23 44.5t-39.5 26q67 98 154.5 170t188 119
t210 69.5t221.5 22.5q76 0 149.5 -12.5t138 -38t117 -64t86.5 -89.5t45.5 -114.5t-4.5 -140.5l-397 -1863h-238q-15 30 -40.5 59t-64.5 51t-94 35.5t-128 13.5q-68 0 -129.5 -16t-115.5 -42t-98.5 -59t-78.5 -67l45 213q31 23 76.5 49.5t100.5 49t116.5 37.5t124.5 15
q73 0 129 -12.5t97 -30t67.5 -36.5t41.5 -31zM954 -877q8 36 27 66.5t45 53t57.5 35.5t63.5 13q35 0 63 -13t45.5 -35.5t23.5 -53t-1 -66.5q-6 -32 -25 -60.5t-46.5 -49.5t-61 -33t-68.5 -12q-32 0 -57.5 12t-42 33t-23 49.5t-0.5 60.5z" />
    <glyph glyph-name="topatakphintuthai" unicode="&#xe0f;&#xe3a;" horiz-adv-x="1610" 
d="M1466 1274q15 75 -0.5 135t-58 102t-110 64t-154.5 22q-75 0 -146 -14t-131.5 -38.5t-108.5 -59t-77 -76.5q9 -12 16.5 -35t11.5 -51.5t3.5 -61.5t-6.5 -65l-254 -1196h-402l41 197h168l213 1011q8 37 8.5 70.5t-7 60t-23 44.5t-39.5 26q67 98 154.5 170t188 119
t210 69.5t221.5 22.5q76 0 149.5 -12.5t138 -38t117 -64t86.5 -89.5t45.5 -114.5t-4.5 -140.5l-397 -1863h-238q-2 24 -9.5 52t-25 52t-45.5 39.5t-71 15.5t-78 -15t-61 -38.5t-42 -51.5t-20 -54h-188q3 18 1.5 46.5t-14 55.5t-38.5 46t-72 19q-40 0 -71 -15.5t-53 -39.5
t-36 -53.5t-20 -58.5h-222q19 90 60.5 156.5t98 110t123.5 64.5t136 21q93 0 150.5 -41.5t79.5 -118.5q26 38 60 66t70.5 46t72.5 26.5t67 8.5q41 0 73.5 -9t56.5 -23.5t40.5 -33t25.5 -36.5zM954 -877q8 36 27 66.5t45 53t57.5 35.5t63.5 13q35 0 63 -13t45.5 -35.5
t23.5 -53t-1 -66.5q-6 -32 -25 -60.5t-46.5 -49.5t-61 -33t-68.5 -12q-32 0 -57.5 12t-42 33t-23 49.5t-0.5 60.5z" />
    <glyph glyph-name="dochadasarauthai" unicode="&#xe0e;&#xe38;" horiz-adv-x="1610" 
d="M1466 1274q15 75 -0.5 135t-58 102t-110 64t-154.5 22q-75 0 -146 -14t-131.5 -38.5t-108.5 -59t-77 -76.5q9 -12 16.5 -35t11.5 -51.5t3.5 -61.5t-6.5 -65l-254 -1196h-402l41 197h168l213 1011q8 37 8.5 70.5t-7 60t-23 44.5t-39.5 26q67 98 154.5 170t188 119
t210 69.5t221.5 22.5q76 0 149.5 -12.5t138 -38t117 -64t86.5 -89.5t45.5 -114.5t-4.5 -140.5l-397 -1863h-238q-15 30 -40.5 59t-64.5 51t-94 35.5t-128 13.5q-68 0 -129.5 -16t-115.5 -42t-98.5 -59t-78.5 -67l45 213q31 23 76.5 49.5t100.5 49t116.5 37.5t124.5 15
q73 0 129 -12.5t97 -30t67.5 -36.5t41.5 -31zM918 -1372l98 454h-131l37 185h352l-135 -639h-221z" />
    <glyph glyph-name="topataksarauthai" unicode="&#xe0f;&#xe38;" horiz-adv-x="1610" 
d="M1466 1274q15 75 -0.5 135t-58 102t-110 64t-154.5 22q-75 0 -146 -14t-131.5 -38.5t-108.5 -59t-77 -76.5q9 -12 16.5 -35t11.5 -51.5t3.5 -61.5t-6.5 -65l-254 -1196h-402l41 197h168l213 1011q8 37 8.5 70.5t-7 60t-23 44.5t-39.5 26q67 98 154.5 170t188 119
t210 69.5t221.5 22.5q76 0 149.5 -12.5t138 -38t117 -64t86.5 -89.5t45.5 -114.5t-4.5 -140.5l-397 -1863h-238q-2 24 -9.5 52t-25 52t-45.5 39.5t-71 15.5t-78 -15t-61 -38.5t-42 -51.5t-20 -54h-188q3 18 1.5 46.5t-14 55.5t-38.5 46t-72 19q-40 0 -71 -15.5t-53 -39.5
t-36 -53.5t-20 -58.5h-222q19 90 60.5 156.5t98 110t123.5 64.5t136 21q93 0 150.5 -41.5t79.5 -118.5q26 38 60 66t70.5 46t72.5 26.5t67 8.5q41 0 73.5 -9t56.5 -23.5t40.5 -33t25.5 -36.5zM918 -1372l98 454h-131l37 185h352l-135 -639h-221z" />
    <glyph glyph-name="fongmanfunnuthai" unicode="&#xe4f;&#x22;" horiz-adv-x="2032" 
d="M1626 2433h242l-127 -463h-185zM1204 2433h242l-127 -463h-184zM315 881q26 122 81.5 234.5t133.5 210t175.5 178t207.5 137.5t229.5 88.5t241.5 31.5t228 -31.5t191.5 -88.5t148.5 -137.5t99 -178t43.5 -210t-17.5 -234.5q-26 -122 -81 -234.5t-132.5 -210.5
t-175 -178.5t-207 -137.5t-228.5 -88.5t-241 -31.5t-228 31.5t-192 88.5t-149.5 137.5t-100.5 178.5t-45 210.5t18 234.5zM541 885q-19 -90 -13 -174t33.5 -156.5t74.5 -132.5t110.5 -103t142 -66.5t168.5 -23.5t178.5 23.5t171 66.5t155 103t131 132.5t99.5 156.5t59 174
q19 90 13.5 173.5t-32.5 156.5t-74.5 132.5t-111 102.5t-142.5 66.5t-169 23.5t-178.5 -23.5t-170.5 -66.5t-154.5 -102.5t-130.5 -132.5t-99.5 -156.5t-60.5 -173.5zM733 885q22 95 76.5 179.5t130.5 147.5t167.5 99.5t186.5 36.5t172 -36.5t127 -99.5t68.5 -147.5
t-2.5 -179.5q-20 -95 -74.5 -179.5t-131 -147.5t-168.5 -99.5t-187 -36.5t-171.5 36.5t-126 99.5t-68.5 147.5t1 179.5zM930 885q-11 -56 0 -104.5t40 -84.5t73 -57t100 -21q55 0 108 21t96.5 57t73.5 84.5t41 104.5q12 55 2 103.5t-38.5 84.5t-73 57t-99.5 21t-108 -21
t-96.5 -57t-75 -84.5t-43.5 -103.5z" />
    <glyph glyph-name="lessequal" unicode="&#x3c;&#x3d;" horiz-adv-x="1487" 
d="M1389 205l-41 -205h-1225l41 205h1225zM1475 610l-41 -204l-1098 602l37 176l1351 598l-41 -201l-1105 -483z" />
    <glyph glyph-name="greaterequal" unicode="&#x3e;&#x3d;" horiz-adv-x="1495" 
d="M1348 1098l-889 483l41 201l1097 -598l-36 -176l-1352 -602l41 204zM164 205l-41 -205h1225l41 205h-1225z" />
    <glyph glyph-name="dochadasarauuthai" unicode="&#xe0e;&#xe39;" horiz-adv-x="1610" 
d="M1466 1274q15 75 -0.5 135t-58 102t-110 64t-154.5 22q-75 0 -146 -14t-131.5 -38.5t-108.5 -59t-77 -76.5q9 -12 16.5 -35t11.5 -51.5t3.5 -61.5t-6.5 -65l-254 -1196h-402l41 197h168l213 1011q8 37 8.5 70.5t-7 60t-23 44.5t-39.5 26q67 98 154.5 170t188 119
t210 69.5t221.5 22.5q76 0 149.5 -12.5t138 -38t117 -64t86.5 -89.5t45.5 -114.5t-4.5 -140.5l-397 -1863h-238q-15 30 -40.5 59t-64.5 51t-94 35.5t-128 13.5q-68 0 -129.5 -16t-115.5 -42t-98.5 -59t-78.5 -67l45 213q31 23 76.5 49.5t100.5 49t116.5 37.5t124.5 15
q73 0 129 -12.5t97 -30t67.5 -36.5t41.5 -31zM369 -918h131l-25 -110q-14 -71 -7.5 -135t40 -112t97.5 -76.5t165 -28.5t176.5 28.5t129 76.5t86.5 112t50 135l62 295h-221l-62 -295q-36 -172 -184 -172q-147 0 -111 172l62 295h-352z" />
    <glyph glyph-name="topataksarauuthai" unicode="&#xe0f;&#xe39;" horiz-adv-x="1610" 
d="M1466 1274q15 75 -0.5 135t-58 102t-110 64t-154.5 22q-75 0 -146 -14t-131.5 -38.5t-108.5 -59t-77 -76.5q9 -12 16.5 -35t11.5 -51.5t3.5 -61.5t-6.5 -65l-254 -1196h-402l41 197h168l213 1011q8 37 8.5 70.5t-7 60t-23 44.5t-39.5 26q67 98 154.5 170t188 119
t210 69.5t221.5 22.5q76 0 149.5 -12.5t138 -38t117 -64t86.5 -89.5t45.5 -114.5t-4.5 -140.5l-397 -1863h-238q-2 24 -9.5 52t-25 52t-45.5 39.5t-71 15.5t-78 -15t-61 -38.5t-42 -51.5t-20 -54h-188q3 18 1.5 46.5t-14 55.5t-38.5 46t-72 19q-40 0 -71 -15.5t-53 -39.5
t-36 -53.5t-20 -58.5h-222q19 90 60.5 156.5t98 110t123.5 64.5t136 21q93 0 150.5 -41.5t79.5 -118.5q26 38 60 66t70.5 46t72.5 26.5t67 8.5q41 0 73.5 -9t56.5 -23.5t40.5 -33t25.5 -36.5zM369 -918h131l-25 -110q-14 -71 -7.5 -135t40 -112t97.5 -76.5t165 -28.5
t176.5 28.5t129 76.5t86.5 112t50 135l62 295h-221l-62 -295q-36 -172 -184 -172q-147 0 -111 172l62 295h-352z" />
    <glyph glyph-name="ellipsis" unicode="&#x2e;&#x2e;&#x2e;" horiz-adv-x="2933" 
d="M356 0l58 274h266l-57 -274h-267zM1331 0l58 274h270l-57 -274h-271zM2572 0h-262l57 274h263z" />
    <glyph glyph-name="plusminus" unicode="&#x2b;&#x2d;" horiz-adv-x="1462" 
d="M930 1409h205l-95 -438h504l-41 -193h-504l-94 -446h-205l95 446h-504l41 193h504zM164 193h1212l-37 -193h-1212z" />
    <glyph glyph-name=".notdef" horiz-adv-x="1212" 
d="M1233 1171v-41h16q25 0 25 29l-4 6t-21 6h-16zM1241 1126h-8v-41h-12v103h28q37 0 37 -29q0 -24 -8 -28.5t-25 -4.5l33 -41h-12zM1249 1073q37 0 51.5 20.5t14.5 36.5q0 33 -16.5 51.5t-49.5 18.5q-28 0 -46.5 -18.5t-18.5 -51.5q0 -20 14 -38.5t51 -18.5zM1249 1208
q37 0 55.5 -22.5t18.5 -55.5q0 -20 -18.5 -42.5t-55.5 -22.5t-57.5 22.5t-20.5 42.5q0 33 20.5 55.5t57.5 22.5zM586 926q45 -4 108.5 -12.5t125 -20.5t116.5 -26.5t80 -35.5q-58 115 -182.5 178.5t-251.5 63.5q-99 0 -191 -39t-149 -116q53 4 106 6t107 2h67h64zM1098 1159
v-418q-144 45 -326 74t-379 29q-143 0 -278 -13q16 66 55 125.5t98.5 104.5t137 71.5t172.5 26.5q90 0 163.5 -20.5t127 -49t92 -65.5t55.5 -61q0 -5 0 18v55.5v65.5v57h82zM446 373q0 24 -16 34.5t-33 10.5q-24 0 -38.5 -10.5t-14.5 -34.5q0 -25 14.5 -35t38.5 -10
q17 0 33 10t16 35zM90 410q0 61 26.5 116.5t71.5 90t98.5 53t114.5 18.5q58 0 113 -16.5t96 -49t65.5 -81.5t24.5 -123v-340h316v594h82v-668h-557v74h86v348q0 94 -65.5 137t-155.5 43q-91 0 -162.5 -49t-71.5 -139v-312l172 173q-12 4 -36.5 26.5t-24.5 67.5
q0 53 30.5 83.5t87.5 30.5q50 0 82.5 -34.5t32.5 -79.5q0 -41 -18.5 -63.5t-30.5 -30.5q-4 -13 -49 -52t-94 -92q-66 -57 -140 -131h-94v406z" />
    <glyph glyph-name=".null" 
 />
    <glyph glyph-name="nonmarkingreturn" horiz-adv-x="831" 
 />
    <glyph glyph-name="space" unicode=" " horiz-adv-x="733" 
 />
    <glyph glyph-name="yoyingnobasethai" unicode="&#xf70f;" horiz-adv-x="2384" 
d="M1618 -12q-63 0 -122 11.5t-110.5 35t-92.5 59t-66 84t-32 110.5t9 138l180 848q15 75 1 135t-53.5 102t-102 64t-144.5 22q-68 0 -133 -14t-122.5 -38.5t-104.5 -59t-78 -76.5q11 -12 18 -35t9.5 -51.5t1 -61.5t-7.5 -65l-217 -1008h188l-37 -188h-426l254 1208
q8 37 10.5 70.5t-2.5 60t-19 44.5t-38 26q67 98 152.5 170t182 119t200.5 69.5t210 22.5q120 0 223 -31t174 -89.5t102.5 -144t8.5 -194.5l-180 -831q-14 -69 -9 -128t30 -101.5t70.5 -66.5t113.5 -24h74q67 0 123.5 24t100 66.5t73 101.5t43.5 128l270 1269h233l-282 -1343
q-26 -117 -89 -200t-147.5 -136t-182 -77.5t-192.5 -24.5h-65z" />
    <glyph glyph-name="uni00A0" unicode="&#xa0;" horiz-adv-x="733" 
 />
    <glyph glyph-name="kokaithai" unicode="&#xe01;" horiz-adv-x="1569" 
d="M1159 1790q115 0 219.5 -28.5t178.5 -86t108.5 -143.5t9.5 -201l-282 -1331h-238l270 1274q15 75 2 135t-52.5 102t-104 64t-152.5 22q-74 0 -141 -14t-124.5 -38.5t-103.5 -59t-77 -76.5q10 -12 17 -35t10 -51.5t1 -61.5t-8 -65l-254 -1196h-237l254 1208q7 37 9.5 70.5
t-2.5 60t-18.5 44.5t-37.5 26q67 98 151.5 170t180.5 119t202.5 69.5t218.5 22.5z" />
    <glyph glyph-name="khokhaithai" unicode="&#xe02;" horiz-adv-x="1331" 
d="M881 0h-353l50 1577h-189l41 192h397l-57 -1269l-25 -303l99 303l483 1269h242z" />
    <glyph glyph-name="khokhuatthai" unicode="&#xe03;" horiz-adv-x="1425" 
d="M877 1524q-12 -15 -34.5 -30t-51 -26.5t-61 -18.5t-66.5 -7q-22 0 -53.5 4t-65 15.5t-64.5 33.5t-51 58.5t-25.5 89t13.5 126.5h217q-6 -29 -1.5 -55.5t19.5 -47t41.5 -32.5t63.5 -12q35 0 62.5 11.5t49 31.5t38 47t30.5 57h221l-57 -278q-14 -63 -39.5 -109t-60 -83.5
t-76.5 -71.5t-90 -72q-40 -35 -71 -66.5t-54.5 -63t-40 -66.5t-27.5 -78l-82 -394q-17 -75 -9.5 -134t35.5 -100.5t74.5 -63t108.5 -21.5q61 0 117 21t101.5 62t79 100t50.5 136l271 1282h233l-283 -1331q-16 -77 -50.5 -141t-81 -115.5t-104 -90t-120 -64.5t-127.5 -39
t-127 -13q-95 0 -181.5 29t-147 87t-87 145t-2.5 202l82 373q11 57 22 100t24.5 77t31 62t42 54.5t57.5 55.5t77 65q29 21 66 48t72 63t63.5 82t40.5 106h-12z" />
    <glyph glyph-name="khokhwaithai" unicode="&#xe04;" horiz-adv-x="1556" 
d="M578 774q52 77 110.5 130.5t125.5 85.5t144.5 43t167.5 3l-45 -217q-107 20 -202.5 -0.5t-172 -74.5t-130 -137t-76.5 -189l-86 -418h-238l279 1315q23 114 86 202t156 149t210 92.5t248 31.5q129 0 232.5 -31.5t171.5 -92.5t95.5 -149t4.5 -202l-279 -1315h-233
l266 1253q15 75 8.5 138.5t-41 109t-100 71t-166.5 25.5q-103 0 -178 -25t-126.5 -70t-83 -108.5t-46.5 -140.5z" />
    <glyph glyph-name="khokhonthai" unicode="&#xe05;" horiz-adv-x="1585" 
d="M578 774q52 77 110.5 130.5t125.5 85.5t144.5 43t167.5 3l-45 -217q-107 20 -202.5 -0.5t-172 -74.5t-130 -137t-76.5 -189l-86 -418h-238l279 1315q18 92 64 169.5t114 137t155.5 98.5t190.5 54l143 -205l221 205q97 -14 170.5 -52t119 -97.5t60.5 -137.5t-5 -172
l-279 -1315h-238l267 1253q9 48 11 90.5t-6.5 79t-29 66.5t-57.5 51l-258 -221q-15 -15 -31 -14.5t-27 14.5l-172 221q-43 -21 -74 -51t-53.5 -66.5t-37 -79t-23.5 -90.5z" />
    <glyph glyph-name="khorakhangthai" unicode="&#xe06;" horiz-adv-x="1556" 
d="M418 811q11 57 22 100t24 77t30.5 62t42 54.5t57.5 55.5t78 65q29 21 65.5 48t70.5 63t61.5 82t39.5 106h-8q-14 -15 -37 -30t-51.5 -26.5t-61.5 -18.5t-67 -7q-22 0 -53.5 4t-64.5 15.5t-64 33.5t-50.5 58.5t-24 89t14.5 126.5h217q-6 -29 -2 -55.5t19 -47t41.5 -32.5
t64.5 -12q36 0 63.5 11.5t48.5 31.5t36.5 47t27.5 57h226l-58 -278q-14 -63 -39.5 -109t-60.5 -83.5t-77.5 -71.5t-88.5 -72q-40 -35 -71 -66.5t-54.5 -63t-40 -66.5t-26.5 -78l-54 -263q-18 -80 -22.5 -150t22.5 -132q15 -32 43 -61t65 -51t81.5 -35t93.5 -13q78 0 137 23
t102 64.5t70.5 99.5t42.5 129l271 1277h233l-287 -1351q-24 -114 -73.5 -196t-118.5 -135t-155.5 -78t-184.5 -25q-71 0 -130 15.5t-109.5 46t-94.5 76.5t-84 107l-37 -229h-233z" />
    <glyph glyph-name="ngonguthai" unicode="&#xe07;" horiz-adv-x="1249" 
d="M668 250q9 -37 31 -57.5t59 -20.5q23 0 45 8.5t40.5 23.5t31.5 35.5t18 43.5l274 1294h-204l41 192h442l-303 -1441q-33 -148 -158 -252.5t-272 -104.5q-115 0 -193 63.5t-98 166.5l-111 835h246z" />
    <glyph glyph-name="chochanthai" unicode="&#xe08;" horiz-adv-x="1348" 
d="M508 864h-184l36 172h365l66 -835q66 129 118.5 229t93 180t72 144.5t56.5 123t45.5 115t40.5 121.5q29 94 35 181t-15 154t-72 107.5t-137 40.5q-152 0 -250.5 -86.5t-138.5 -257.5h-250q23 115 80 213.5t144 170.5t203 112.5t257 40.5q68 0 133.5 -11.5t122.5 -40
t100 -75t65.5 -117t19.5 -166t-39 -221.5q-21 -71 -46 -138t-58.5 -140.5t-77 -158t-100 -189.5t-128 -236t-160.5 -297h-319z" />
    <glyph glyph-name="chochingthai" unicode="&#xe09;" horiz-adv-x="1507" 
d="M1368 1282q34 155 -39.5 235t-247.5 80q-158 0 -259.5 -69.5t-141.5 -196.5h-246q25 115 93.5 201t163 143.5t207 86t224.5 28.5t212 -27t170.5 -83t102 -141t7.5 -200l-283 -1339h-229l49 229q-130 -123 -258 -186t-270 -63q-99 0 -176.5 26t-127 79.5t-65.5 136
t8 196.5l131 618h238l-115 -544q-15 -71 -11.5 -130t30 -101t77.5 -65.5t129 -23.5q49 0 100.5 13.5t99.5 36t90 52.5t71 62q52 62 80 132t47 150z" />
    <glyph glyph-name="chochangthai" unicode="&#xe0a;" horiz-adv-x="1421" 
d="M1188 856q21 100 9 154t-48.5 79.5t-92.5 31.5t-122 9l41 189q91 0 159.5 28.5t119 84.5t85.5 140.5t58 196.5h254q-18 -90 -49 -179t-83.5 -162.5t-130.5 -125.5t-192 -69v-4q71 -7 117.5 -28.5t74 -52.5t40 -68.5t14 -76t-4 -75.5t-12.5 -68l-90 -422
q-16 -77 -51 -140.5t-83 -114.5t-106.5 -89t-122 -63.5t-130 -38t-129.5 -12.5q-95 0 -182.5 28.5t-149 85.5t-88.5 143t-2 201l90 422q12 57 23.5 101.5t25 80t29.5 64.5t37.5 55.5t49 53.5t64.5 59q31 28 60 54t52.5 51.5t39 50t20.5 49.5q8 32 3.5 55.5t-19.5 38.5
t-39 22t-55 7q-37 0 -74.5 -4t-71.5 -10.5t-62 -13.5t-46 -13l41 192q49 9 93.5 15t81.5 9t65.5 4t45.5 1q74 0 127 -20t84 -58t40 -92t-5 -121q-14 -68 -40.5 -112.5t-60.5 -81t-73.5 -71.5t-79.5 -83q-32 -37 -50.5 -70t-30 -66t-19.5 -68.5t-19 -78.5l-77 -373
q-17 -75 -8.5 -133.5t38 -99t76.5 -61.5t107 -21q61 0 118 20.5t104.5 60.5t82 98.5t51.5 135.5z" />
    <glyph glyph-name="sosothai" unicode="&#xe0b;" horiz-adv-x="1503" 
d="M1270 856q21 100 11 154t-44.5 79.5t-88.5 31.5t-120 9l41 189q91 0 157.5 28.5t115 84.5t81.5 140.5t56 196.5h254q-19 -90 -49.5 -179t-83 -162.5t-130.5 -125.5t-192 -69v-4q71 -7 117.5 -28.5t74 -52.5t40 -68.5t14 -76t-4 -75.5t-12.5 -68l-90 -422
q-16 -77 -51 -140.5t-83 -114.5t-106.5 -89t-122 -63.5t-130 -38t-129.5 -12.5q-95 0 -182.5 28.5t-149 85.5t-88.5 143t-2 201l82 373q11 57 21.5 98.5t22.5 73.5t27 58t36.5 52t50 55.5t67.5 68.5q37 38 73 77.5t66.5 79t52 77.5t29.5 73h-8q-14 -15 -37 -30t-51.5 -26.5
t-61.5 -18.5t-67 -7q-21 0 -50.5 4.5t-60 17.5t-58 36t-46 59t-24 87.5t8.5 122.5h218q-6 -29 -4 -55.5t14 -47t35.5 -32.5t60.5 -12t65 11.5t49.5 31.5t37.5 47t28 57h213l-49 -245q-15 -68 -69 -152.5t-144 -183.5q-38 -42 -69.5 -79t-56 -73.5t-42.5 -74t-28 -80.5
l-82 -394q-17 -75 -8.5 -133.5t38 -99t76.5 -61.5t107 -21q61 0 118 20.5t104 60.5t82 98.5t52 135.5z" />
    <glyph glyph-name="chochoethai" unicode="&#xe0c;" horiz-adv-x="2384" 
d="M1405 1274q15 75 1 135t-53.5 102t-102.5 64t-144 22q-68 0 -133 -14t-122.5 -38.5t-104.5 -59t-78 -76.5q10 -12 17.5 -35t11 -51.5t2.5 -61.5t-7 -65l-213 -999h189l-41 -197h-426l254 1208q7 37 9 70.5t-4 60t-20 44.5t-39 26q68 98 153 170t181.5 119t201 69.5
t210.5 22.5q120 0 222.5 -31t174 -89.5t103 -144t8.5 -194.5l-148 -680q-9 -46 -13 -83t-3 -69t6 -60.5t14 -57.5q8 -28 30.5 -62t56.5 -64t76.5 -50.5t90.5 -20.5q69 0 121 24t89 66.5t62 101.5t40 128l266 1265h237l-282 -1339q-25 -114 -75 -196.5t-117.5 -136
t-147.5 -79.5t-164 -26q-130 0 -228.5 61.5t-160.5 175.5l-41 -229h-229z" />
    <glyph glyph-name="dochadathai" unicode="&#xe0e;" horiz-adv-x="1610" 
d="M1466 1274q15 75 -0.5 135t-58 102t-110 64t-154.5 22q-75 0 -146 -14t-131.5 -38.5t-108.5 -59t-77 -76.5q9 -12 16.5 -35t11.5 -51.5t3.5 -61.5t-6.5 -65l-254 -1196h-402l41 197h168l213 1011q8 37 8.5 70.5t-7 60t-23 44.5t-39.5 26q67 98 154.5 170t188 119
t210 69.5t221.5 22.5q76 0 149.5 -12.5t138 -38t117 -64t86.5 -89.5t45.5 -114.5t-4.5 -140.5l-405 -1904h-238q-15 30 -40.5 59t-65 51t-94 35.5t-128.5 13.5q-68 0 -129.5 -16t-115.5 -42t-99.5 -59t-81.5 -67l50 213q31 23 75.5 49.5t98.5 49.5t115 38t124 15
q74 0 130.5 -12.5t98 -30.5t69 -37t42.5 -31z" />
    <glyph glyph-name="topatakthai" unicode="&#xe0f;" horiz-adv-x="1610" 
d="M1466 1274q15 75 -0.5 135t-58 102t-110 64t-154.5 22q-75 0 -146 -14t-131.5 -38.5t-108.5 -59t-77 -76.5q9 -12 16.5 -35t11.5 -51.5t3.5 -61.5t-6.5 -65l-254 -1196h-402l41 197h168l213 1011q8 37 8.5 70.5t-7 60t-23 44.5t-39.5 26q67 98 154.5 170t188 119
t210 69.5t221.5 22.5q76 0 149.5 -12.5t138 -38t117 -64t86.5 -89.5t45.5 -114.5t-4.5 -140.5l-405 -1904h-238q-2 24 -9.5 52t-25 52t-45.5 39.5t-71 15.5t-78 -15t-61 -38.5t-42 -51.5t-20 -54h-189q3 18 1 46.5t-15 55.5t-39.5 46t-72.5 19q-40 0 -70.5 -15.5t-52 -39.5
t-35 -53.5t-19.5 -58.5h-221q18 90 60 156.5t98.5 110t123.5 64.5t136 21q93 0 150.5 -41.5t78.5 -118.5q26 38 59.5 66t69.5 46t71.5 27t66.5 9q41 0 74 -9t58 -24t42 -33.5t26 -36.5z" />
    <glyph glyph-name="thothanthai" unicode="&#xe10;" horiz-adv-x="1348" 
d="M508 -573h-135q-2 17 -4 38t-9.5 40t-23.5 31.5t-45 12.5q-26 0 -47.5 -10t-37.5 -26.5t-27 -39t-15 -46.5h-164q14 92 51.5 151.5t84 94t94 48t81.5 13.5t59 -7t43 -20t30 -30t20 -37q24 29 52 47t54 28.5t48 14.5t34 4q61 0 96.5 -26t51.5 -60l37 164h204l-82 -385
h-204q-2 24 -7.5 46.5t-17.5 39t-31 26.5t-47 10q-59 0 -96.5 -35t-46.5 -87zM463 864h-184l36 172h365l65 -835q67 129 119 229t93 180t72.5 144.5t56.5 123t45.5 115t39.5 121.5q29 94 35.5 181t-14.5 154t-72 107.5t-137 40.5q-152 0 -250.5 -86.5t-138.5 -257.5h-250
q23 115 80 213.5t144 170.5t203 112.5t257 40.5q65 0 129.5 -12t120.5 -37q51 7 88.5 25.5t64 41t41 46.5t19.5 42h262q-9 -38 -35.5 -80t-69.5 -80t-102 -68.5t-133 -45.5q23 -37 37.5 -83.5t17.5 -103.5t-6 -126t-32 -150q-21 -71 -46 -138t-58.5 -140.5t-77 -158
t-100 -189.5t-128 -236t-160.5 -297h-319z" />
    <glyph glyph-name="thonangmonthothai" unicode="&#xe11;" horiz-adv-x="1622" 
d="M1470 1597q-44 0 -105.5 -37t-131 -96t-141 -133.5t-136 -149t-116.5 -142t-82 -113.5q-37 -53 -58 -96t-32.5 -80t-17 -69t-11.5 -63l-131 -618h-234l115 545q11 49 19.5 94.5t20 89.5t29 86.5t46.5 85.5q23 34 53 74.5t63 83.5t67.5 86.5t66.5 83.5q49 60 79.5 102.5
t47.5 75.5t23.5 60.5t8.5 56.5h-8q-12 -15 -34.5 -30t-51 -26.5t-62.5 -18.5t-69 -7q-22 0 -53.5 4t-64.5 15.5t-64 33.5t-50.5 58.5t-24 89t14.5 126.5h218q-6 -29 -2.5 -55.5t18.5 -47t41.5 -32.5t64.5 -12q36 0 66 11t52.5 30.5t36.5 46.5t17 59h218l-37 -188
q64 55 123.5 95.5t116 66.5t112.5 38.5t115 12.5q54 0 91.5 -15t58 -50t22 -92.5t-16.5 -141.5l-315 -1495h-238l312 1483q3 14 7 33.5t1.5 37.5t-15 30.5t-43.5 12.5z" />
    <glyph glyph-name="thophuthaothai" unicode="&#xe12;" horiz-adv-x="2466" 
d="M455 1315q18 92 67.5 169.5t121.5 137t163 98.5t192 54l148 -205l229 205q97 -14 172 -52t123 -97.5t65 -137.5t-3 -172l-144 -664q-9 -46 -12.5 -83t-2 -69t7.5 -60.5t15 -57.5q8 -28 31.5 -62t57 -64t74 -50.5t83.5 -20.5q66 0 118.5 24t92 66.5t67 101.5t42.5 128
l266 1265h233l-282 -1339q-25 -114 -74.5 -196.5t-116 -136t-146 -79.5t-163.5 -26q-133 0 -230 61.5t-159 175.5l-41 -229h-233l266 1253q18 96 -2.5 170t-91.5 117l-271 -221q-11 -11 -26.5 -11t-26.5 11l-172 221q-90 -43 -142 -117t-71 -170l-193 -905l459 504h-192
l37 184h434l-37 -184l-774 -852h-238z" />
    <glyph glyph-name="nonenthai" unicode="&#xe13;" horiz-adv-x="2388" 
d="M1405 1270q17 75 3.5 135t-52.5 101.5t-102 64t-144 22.5q-68 0 -133 -14t-123 -38.5t-106 -59t-80 -76.5q12 -12 19.5 -35t10.5 -51.5t0.5 -61.5t-10.5 -65l-209 -995h189l-41 -197h-426l254 1204q7 35 9 67.5t-4 59t-20 46t-39 28.5q69 98 155 170t183 119t201.5 69.5
t210.5 22.5q120 0 222 -31t172.5 -89.5t101.5 -144t8 -194.5l-172 -823q-15 -69 -16 -128t18.5 -101.5t62.5 -66.5t115 -24q45 0 94 20.5t94.5 50.5t82.5 64t57 62q21 29 39 57.5t32.5 60.5t26 69t20.5 83l238 1118h238l-373 -1769h-234l50 229q-103 -114 -228.5 -175.5
t-255.5 -61.5q-86 0 -155 26t-113 79.5t-58 136t11 196.5z" />
    <glyph glyph-name="dodekthai" unicode="&#xe14;" horiz-adv-x="1606" 
d="M1188 852l-774 -852h-238l279 1315q23 114 90 202t164 149t217.5 92.5t249.5 31.5q130 0 238.5 -31.5t181 -92.5t104 -149t8.5 -202l-278 -1315h-238l266 1253q15 75 5 138.5t-48.5 109t-107.5 71t-172 25.5q-102 0 -180 -25t-134 -70t-91 -108.5t-50 -140.5l-193 -905
l459 504h-192l37 184h434z" />
    <glyph glyph-name="totaothai" unicode="&#xe15;" horiz-adv-x="1630" 
d="M455 1315q18 92 67.5 169.5t121.5 137t163 98.5t192 54l148 -205l229 205q97 -14 172 -52t123 -97.5t65 -137.5t-3 -172l-279 -1315h-237l266 1253q18 96 -2.5 170t-91.5 117l-271 -221q-11 -11 -26.5 -11t-26.5 11l-172 221q-90 -43 -142 -117t-71 -170l-193 -905
l459 504h-192l37 184h434l-37 -184l-774 -852h-238z" />
    <glyph glyph-name="thothungthai" unicode="&#xe16;" horiz-adv-x="1569" 
d="M201 0l254 1208q7 37 9.5 70.5t-2.5 60t-18.5 44.5t-37.5 26q67 98 151.5 170t180.5 119t202.5 69.5t218.5 22.5q115 0 219.5 -28.5t178.5 -86t108.5 -143.5t9.5 -201l-282 -1331h-238l270 1274q15 75 2 135t-52.5 102t-104 64t-152.5 22q-74 0 -141 -14t-124.5 -38.5
t-103.5 -59t-77 -76.5q10 -12 17 -35t10 -51.5t1 -61.5t-8 -65l-217 -1003h189l-37 -193h-426z" />
    <glyph glyph-name="thothahanthai" unicode="&#xe17;" horiz-adv-x="1544" 
d="M729 1540q130 124 266 187t279 63q98 0 178.5 -26t133 -79.5t72.5 -136t-3 -196.5l-287 -1352h-238l271 1278q14 69 6.5 127.5t-37.5 101t-83.5 66.5t-131.5 24q-49 0 -103 -13.5t-105 -36t-94 -52t-71 -61.5q-55 -62 -81.5 -134t-45.5 -149l-241 -1151h-238l373 1769
h233z" />
    <glyph glyph-name="thothongthai" unicode="&#xe18;" horiz-adv-x="1475" 
d="M1196 635q13 59 7.5 100.5t-27 70.5t-55.5 49t-77.5 36t-94.5 31.5t-105 35.5q-97 37 -176 75t-131 87t-73 113.5t-1 155.5q18 87 71 161.5t133 128.5t184.5 84.5t225.5 30.5q135 0 236.5 -29t164 -87.5t82.5 -148t-8 -210.5h-237q28 136 -37.5 209.5t-220.5 73.5
q-72 0 -133 -16t-106.5 -43t-74.5 -62.5t-38 -75.5q-9 -43 -0.5 -75t30.5 -57t54.5 -43.5t71.5 -34t82 -30t85 -30.5q83 -29 150 -53t118 -50.5t85.5 -59t52 -77t17.5 -105t-17 -143.5l-45 -217q-25 -114 -90.5 -197.5t-156 -139t-197 -82.5t-212.5 -27t-201 27t-162.5 82.5
t-97.5 139t-6 197.5l94 447h238l-82 -385q-31 -152 34.5 -234t223.5 -82t258.5 80.5t134.5 235.5z" />
    <glyph glyph-name="nonuthai" unicode="&#xe19;" horiz-adv-x="1544" 
d="M1188 229q-130 -123 -268 -188.5t-277 -65.5q-100 0 -181 26.5t-133.5 81.5t-71.5 138t5 197l287 1351h237l-270 -1277q-15 -71 -8 -130.5t37.5 -102.5t84.5 -67t132 -24q49 0 102.5 14t104.5 37.5t95 54t75 62.5q52 62 78 132t45 150l241 1151h238l-373 -1769h-233z" />
    <glyph glyph-name="bobaimaithai" unicode="&#xe1a;" horiz-adv-x="1544" 
d="M770 -16q-71 0 -140 12t-130.5 36.5t-112 61t-83 86t-43.5 112t5 138.5l283 1339h237l-270 -1277q-15 -75 -0.5 -134t54 -99.5t101.5 -61.5t140 -21t147.5 20.5t125 60.5t94 99t55.5 136l270 1277h238l-283 -1339q-16 -76 -54 -138.5t-90.5 -112t-117.5 -86t-136 -61
t-145 -36.5t-145 -12z" />
    <glyph glyph-name="poplathai" unicode="&#xe1b;" horiz-adv-x="1544" 
d="M770 -16q-71 0 -140 12t-130.5 36.5t-112 61t-83 86t-43.5 112t5 138.5l283 1339h237l-270 -1277q-15 -75 -0.5 -134t54 -99.5t101.5 -61.5t140 -21t147.5 20.5t125 60.5t94 99t55.5 136l409 1933h238l-422 -1995q-16 -76 -54 -138.5t-90.5 -112t-117.5 -86t-136 -61
t-145 -36.5t-145 -12z" />
    <glyph glyph-name="phophungthai" unicode="&#xe1c;" horiz-adv-x="1671" 
d="M549 1769h426l-41 -192h-189l-233 -1098q-31 -154 -9 -222.5t99 -68.5q57 0 93.5 27.5t61 75t41 112t33.5 138.5l103 499h237l-102 -499q-17 -74 -27.5 -138.5t-5 -112t32.5 -75t86 -27.5q37 0 67 16.5t55 52t44.5 90.5t34.5 132l274 1290h238l-283 -1343
q-24 -111 -66 -192t-98.5 -134t-124.5 -78.5t-145 -25.5q-118 0 -188.5 56t-85.5 161q-59 -105 -147 -161t-206 -56q-80 0 -139.5 25.5t-94 78.5t-41.5 134t17 192z" />
    <glyph glyph-name="fofathai" unicode="&#xe1d;" horiz-adv-x="1671" 
d="M549 1769h426l-41 -192h-189l-233 -1098q-31 -154 -9 -222.5t99 -68.5q57 0 93.5 27.5t61 75t41 112t33.5 138.5l103 499h237l-102 -499q-17 -74 -27.5 -138.5t-5 -112t32.5 -75t86 -27.5q37 0 67 16.5t55 52t44.5 90.5t34.5 132l413 1946h238l-422 -1999
q-24 -111 -66 -192t-98.5 -134t-124.5 -78.5t-145 -25.5q-118 0 -188.5 56t-85.5 161q-59 -105 -147 -161t-206 -56q-80 0 -139.5 25.5t-94 78.5t-41.5 134t17 192z" />
    <glyph glyph-name="phophanthai" unicode="&#xe1e;" horiz-adv-x="1946" 
d="M1225 1769h250l-17 -1134l-37 -377l115 377l418 1134h254l-688 -1769h-271l17 1307l28 237l-61 -237l-533 -1307h-270l57 1769h254l-65 -1134l-41 -377l119 377z" />
    <glyph glyph-name="fofanthai" unicode="&#xe1f;" horiz-adv-x="1946" 
d="M1233 1769h250l-17 -1134l-36 -377l114 377l631 1790h238l-885 -2425h-271l17 1307l33 237l-66 -237l-532 -1307h-267l54 1769h254l-66 -1134l-41 -377l119 377z" />
    <glyph glyph-name="phosamphaothai" unicode="&#xe20;" horiz-adv-x="1585" 
d="M1176 1790q115 0 219 -28.5t178.5 -86t108.5 -143.5t10 -201l-283 -1331h-238l271 1274q15 75 2 135t-52.5 102t-104.5 64t-152 22q-74 0 -141.5 -14t-125 -38.5t-103.5 -59t-77 -76.5q11 -12 18 -35t9.5 -51.5t1 -61.5t-7.5 -65l-254 -1196h-406l37 193h168l217 1015
q8 37 10.5 70.5t-2.5 60t-19 44.5t-38 26q67 98 151.5 170t181 119t203 69.5t218.5 22.5z" />
    <glyph glyph-name="momathai" unicode="&#xe21;" horiz-adv-x="1544" 
d="M410 0h-234l373 1769h237l-241 -1151q-9 -40 -15.5 -77.5t-7.5 -72.5t5.5 -68t21.5 -64q14 -32 44.5 -62.5t71.5 -54t89.5 -37.5t97.5 -14q78 0 141.5 24t111.5 67t80.5 102.5t47.5 130.5l270 1277h238l-287 -1351q-24 -114 -78.5 -197t-130 -138t-167 -81.5
t-189.5 -26.5q-143 0 -252 65.5t-186 188.5z" />
    <glyph glyph-name="yoyakthai" unicode="&#xe22;" horiz-adv-x="1507" 
d="M426 1368q17 79 50.5 139t78 105t96 75t106 48t108.5 26t102 8h204l-41 -192h-135q-31 0 -80 -4.5t-99.5 -26.5t-92.5 -67.5t-59 -126.5q-19 -85 -6 -139t48.5 -86t89.5 -45.5t117 -16.5h111l-41 -188h-111q-68 -3 -128.5 -16.5t-111 -51.5t-89.5 -108.5t-64 -188.5
q-17 -77 -9 -140.5t43.5 -108.5t101 -70t163.5 -25q103 0 177 27t124.5 75t81 114t47.5 144l262 1241h234l-274 -1302q-25 -115 -83 -206.5t-146.5 -155t-205.5 -97t-258 -33.5q-134 0 -239 33t-172 99t-91.5 164t3.5 229q10 44 23 91.5t33 94t49 90.5t71.5 81.5t100.5 65.5
t136 44v8q-65 14 -108.5 38.5t-71 55.5t-40.5 67.5t-16.5 75.5t0.5 78.5t11 77.5z" />
    <glyph glyph-name="roruathai" unicode="&#xe23;" horiz-adv-x="1253" 
d="M1135 1319q13 64 9 116.5t-26 89.5t-63 57t-101 20q-49 0 -98 -14t-91 -43t-73 -73t-45 -104q-11 -53 -3 -94t29 -72.5t51.5 -55.5t65 -44t69 -38t63.5 -36q48 -30 95 -58t88 -59t73.5 -68t52 -85t23 -109t-12.5 -141q-26 -120 -79.5 -218.5t-134 -168t-189 -108
t-244.5 -38.5q-114 0 -205.5 32.5t-148.5 97.5t-72 162.5t25 228.5h241q-17 -57 -15.5 -115.5t25 -105.5t70.5 -77t121 -30q66 0 124 17.5t105.5 56t82 99t52.5 146.5q12 58 4 104.5t-30 84t-55 66.5t-70 53t-74.5 43.5t-68.5 38.5q-82 46 -147 88.5t-106 95t-54.5 122
t8.5 169.5q21 104 78.5 186t136.5 139t173 87t189 30q124 0 209 -30.5t132.5 -90.5t58 -148.5t-14.5 -205.5h-233z" />
    <glyph glyph-name="ruthai" unicode="&#xe24;" horiz-adv-x="1569" 
d="M201 0l254 1208q7 37 9.5 70.5t-2.5 60t-18.5 44.5t-37.5 26q67 98 151.5 170t180.5 119t202.5 69.5t218.5 22.5q115 0 219.5 -28.5t178.5 -86t108.5 -143.5t9.5 -201l-405 -1904h-238l393 1847q15 75 2 135t-52.5 102t-104 64t-152.5 22q-74 0 -141 -14t-124.5 -38.5
t-103.5 -59t-77 -76.5q10 -12 17 -35t10 -51.5t1 -61.5t-8 -65l-217 -1003h189l-37 -193h-426z" />
    <glyph glyph-name="lolingthai" unicode="&#xe25;" horiz-adv-x="1507" 
d="M1098 0l200 954q-34 -17 -83 -34t-105.5 -33t-117.5 -32.5t-118.5 -32.5t-107.5 -32t-86 -32q-48 -18 -87 -48t-68.5 -67.5t-49.5 -81.5t-29 -90q-14 -63 -4 -115t42 -89.5t85 -58t127 -20.5q25 0 57 6t66 15l-37 -184q-40 -19 -87.5 -28t-84.5 -9q-131 0 -219 33
t-136.5 97t-58 156.5t16.5 212.5q3 16 10.5 45.5t23 65.5t40 77t61 81t87 76.5t118.5 64.5q38 14 104.5 34t144.5 42t159 44.5t148.5 42t113 34t51.5 20.5q24 15 40.5 34.5t27.5 44t18.5 54t15.5 64.5q15 75 0.5 129t-54 89t-101.5 51.5t-140 16.5q-81 0 -148.5 -23
t-119.5 -64.5t-88.5 -100.5t-56.5 -131h-242q32 132 103 228.5t169 159.5t217 93.5t248 30.5q96 0 166.5 -18.5t120.5 -49.5t81.5 -71.5t50 -83t25.5 -84.5t8.5 -76.5t-1.5 -59t-4 -32.5l-279 -1315h-233z" />
    <glyph glyph-name="luthai" unicode="&#xe26;" horiz-adv-x="1585" 
d="M1176 1790q115 0 219 -28.5t178.5 -86t108.5 -143.5t10 -201l-406 -1904h-237l393 1847q15 75 2 135t-52.5 102t-104.5 64t-152 22q-74 0 -141.5 -14t-125 -38.5t-103.5 -59t-77 -76.5q11 -12 18 -35t9.5 -51.5t1 -61.5t-7.5 -65l-254 -1196h-406l37 193h168l217 1015
q8 37 10.5 70.5t-2.5 60t-19 44.5t-38 26q67 98 151.5 170t181 119t203 69.5t218.5 22.5z" />
    <glyph glyph-name="wowaenthai" unicode="&#xe27;" horiz-adv-x="1307" 
d="M668 168q100 0 171.5 57t124 154.5t90 226t68.5 271.5q10 49 26.5 121.5t27.5 152.5t11.5 159.5t-21 143.5t-71 103.5t-137.5 39.5q-58 0 -106 -19t-87 -51.5t-69 -75.5t-52.5 -90.5t-37.5 -97.5t-24 -96h-238q26 123 83 235.5t141 199t194 137.5t242 51q83 0 153 -19
t123.5 -62t89 -113t49.5 -171.5t4 -237t-47 -310.5q-19 -91 -50 -193.5t-76 -202.5t-104.5 -191.5t-136 -161.5t-171.5 -111.5t-211 -41.5q-120 0 -200.5 37.5t-128.5 101.5t-65.5 149.5t-11.5 182.5h250q-3 -52 3 -102t28 -89t61.5 -63t104.5 -24z" />
    <glyph glyph-name="sosalathai" unicode="&#xe28;" horiz-adv-x="1561" 
d="M578 774q52 77 110.5 130.5t125.5 85.5t144.5 43t167.5 3l-45 -217q-107 20 -202.5 -0.5t-172 -74.5t-130 -137t-76.5 -189l-86 -418h-238l279 1315q23 114 86 202t156 149t210 92.5t248 31.5q87 0 162 -12.5t137 -40.5q52 3 92 21t68 42t44 50t21 46h258
q-11 -40 -35.5 -82.5t-66 -80.5t-99.5 -67.5t-134 -43.5q93 -118 57 -307l-279 -1315h-233l266 1253q15 75 8.5 138.5t-41 109t-100 71t-166.5 25.5q-103 0 -178 -25t-126.5 -70t-83 -108.5t-46.5 -140.5z" />
    <glyph glyph-name="sorusithai" unicode="&#xe29;" horiz-adv-x="1544" 
d="M1458 430q-16 -76 -54 -138.5t-90.5 -112t-117.5 -86t-136 -61t-145 -36.5t-145 -12t-140 12t-130.5 36.5t-112 61t-83 86t-43.5 112t5 138.5l283 1339h237l-270 -1277q-15 -75 -0.5 -134t54 -99.5t101.5 -61.5t140 -21t147.5 20.5t125 60.5t94 99t55.5 136l74 352h-471
l73 340h226l-33 -152h246l155 737h238l-156 -737h160l-41 -188h-160z" />
    <glyph glyph-name="sosuathai" unicode="&#xe2a;" horiz-adv-x="1532" 
d="M1573 1618q29 -48 42 -98.5t17 -93.5t1.5 -73.5t-3.5 -37.5l-278 -1315h-238l201 954q-34 -17 -83 -34t-105.5 -33t-117.5 -32.5t-118.5 -32.5t-108 -32t-86.5 -32q-48 -18 -86 -48t-66.5 -67.5t-48 -81.5t-28.5 -90q-14 -63 -4.5 -115t41 -89.5t84.5 -58t125 -20.5
q24 0 56.5 6t66.5 15l-37 -184q-41 -19 -86.5 -28t-85.5 -9q-129 0 -217 33t-137 97t-59.5 156.5t15.5 212.5q3 16 11 45.5t23 65.5t39.5 77t61 81t87 76.5t118.5 64.5q39 14 106 34t145 42t159.5 44.5t149 42t113 34t52.5 20.5q23 15 38.5 34.5t26.5 44t18.5 54t15.5 64.5
q15 75 1 129t-53 89t-101 51.5t-142 16.5q-81 0 -148.5 -23t-120 -64.5t-89 -100.5t-56.5 -131h-242q34 132 105 228.5t168.5 159.5t216.5 93.5t248 30.5q86 0 151 -15t115 -42q58 0 103.5 18t77.5 43.5t50 53.5t23 48h262q-11 -43 -40.5 -89t-77.5 -85.5t-116 -68
t-155 -35.5z" />
    <glyph glyph-name="hohipthai" unicode="&#xe2b;" horiz-adv-x="1561" 
d="M791 1769l-148 -692l856 692h287l-414 -331q83 -34 130 -89t66.5 -127.5t14.5 -161t-27 -188.5l-184 -872h-237l188 905q14 64 13 124t-18.5 109.5t-51.5 86.5t-86 57l-594 -479l-168 -803h-238l373 1769h238z" />
    <glyph glyph-name="lochulathai" unicode="&#xe2c;" horiz-adv-x="1864" 
d="M1438 0h-312l-8 991l33 242l-70 -242l-422 -991h-307l135 1769h246l-127 -1134l-45 -377l156 377l368 819h234l12 -819v-377l123 377l193 569q27 86 45 157.5t12.5 123t-41 80t-115.5 28.5l13 168q73 1 143.5 15.5t129.5 44.5t103.5 77t65.5 113h270
q-29 -83 -76.5 -143.5t-106 -102.5t-124 -66.5t-131.5 -35.5q48 -14 76 -48.5t36.5 -86.5t-3 -120.5t-43.5 -150.5z" />
    <glyph glyph-name="oangthai" unicode="&#xe2d;" horiz-adv-x="1565" 
d="M459 1274q101 246 275.5 379t420.5 133q161 0 266.5 -57.5t159.5 -165.5t58 -263t-37 -350q-60 -282 -144 -470.5t-189 -301.5t-230.5 -160t-268.5 -47q-93 0 -170 20.5t-135 66.5t-95.5 121t-52 183.5t-4.5 254t47 333.5l17 86h569l-41 -192h-315q-29 -147 -38 -272
t13 -215.5t81 -141.5t165 -51q111 0 193 52.5t143.5 146t105.5 223t78 282.5q42 197 49.5 335t-19.5 224.5t-88.5 126t-158.5 39.5q-129 0 -228 -76.5t-169 -242.5h-258z" />
    <glyph glyph-name="honokhukthai" unicode="&#xe2e;" horiz-adv-x="1573" 
d="M1548 1614q75 -112 87.5 -278t-33.5 -386q-60 -282 -144 -470t-189 -300t-230.5 -158.5t-268.5 -46.5q-93 0 -171 20t-136.5 66t-97 120.5t-53 183t-3.5 253.5t51 332l17 86h569l-41 -192h-315q-29 -147 -38 -271t13 -214t81 -140.5t165 -50.5q111 0 193 52t143.5 145
t105.5 221.5t78 281.5q42 197 50 336t-18 227.5t-87 129.5t-158 41q-130 0 -230.5 -84.5t-174.5 -251.5h-258q51 123 121 220.5t158.5 166t195 105t229.5 36.5q81 0 148 -17.5t123 -47.5q51 3 90.5 21t67.5 42t44 50t19 46h262q-9 -41 -36.5 -85t-72.5 -82.5t-109 -67.5
t-147 -39z" />
    <glyph glyph-name="paiyannoithai" unicode="&#xe2f;" horiz-adv-x="1507" 
d="M1098 0l225 1065q-77 -77 -189 -120.5t-245 -43.5q-138 0 -236 33t-155.5 94t-75 147.5t3.5 192.5q16 74 49.5 132.5t77.5 103t96 76t106.5 51.5t109 29t102.5 9h204l-36 -184h-136q-20 0 -50 -2.5t-64 -11t-68.5 -23.5t-65 -39.5t-54 -60t-33.5 -84.5q-9 -48 -5 -95.5
t31.5 -85.5t84 -61.5t151.5 -23.5q196 0 316.5 76.5t154.5 242.5l73 352h234l-373 -1769h-233z" />
    <glyph glyph-name="saraathai" unicode="&#xe30;" horiz-adv-x="950" 
d="M1061 1192h-635l66 307h208l-28 -131h426zM868 279h-635l66 307h209l-29 -131h426z" />
    <glyph glyph-name="maihanakatthai" unicode="&#xe31;" 
d="M496 2032h-967l70 331h208l-28 -135h758z" />
    <glyph glyph-name="saraaathai" unicode="&#xe32;" horiz-adv-x="1253" 
d="M328 1327q16 76 50 139.5t80.5 115t104 90.5t120 65t128.5 39.5t131 13.5q94 0 180 -28.5t147 -86t88 -143.5t3 -201l-283 -1331h-237l270 1282q17 77 9.5 136t-35.5 98.5t-75 60t-108 20.5q-57 0 -109.5 -18t-97 -52.5t-78 -85t-51.5 -114.5h-237z" />
    <glyph glyph-name="saraamthai" unicode="&#xe33;" horiz-adv-x="1253" 
d="M328 1327q16 76 50 139.5t80.5 115t104 90.5t120 65t128.5 39.5t131 13.5q94 0 180 -28.5t147 -86t88 -143.5t3 -201l-283 -1331h-237l270 1282q17 77 9.5 136t-35.5 98.5t-75 60t-108 20.5q-57 0 -109.5 -18t-97 -52.5t-78 -85t-51.5 -114.5h-237zM-98 2286
q12 55 42.5 103.5t73.5 84.5t94 57t105 21q55 0 99.5 -21t73 -57t38.5 -84.5t-2 -103.5q-11 -54 -41.5 -102t-74 -83.5t-96.5 -56.5t-108 -21q-52 0 -94.5 21t-70.5 56.5t-39 83.5t0 102zM53 2286q-5 -22 0 -41.5t17 -34t30 -23t39 -8.5q23 0 45 8.5t39.5 23t29.5 34
t17 41.5q5 23 1 43t-15.5 35t-30 23.5t-41.5 8.5q-21 0 -42.5 -8.5t-39.5 -23.5t-31 -35t-18 -43z" />
    <glyph glyph-name="saraithai" unicode="&#xe34;" 
d="M-791 2228h1086l-41 -196h-1184z" />
    <glyph glyph-name="saraiithai" unicode="&#xe35;" 
d="M-791 2228h877l57 266h209l-98 -462h-1184z" />
    <glyph glyph-name="sarauethai" unicode="&#xe36;" 
d="M25 2265q-5 -18 -1.5 -34.5t13 -29t24.5 -19.5t33 -7t36 7t33 19.5t26 29t16 34.5q9 37 -12 63.5t-58 26.5q-18 0 -36 -7t-33 -19.5t-26 -29t-15 -34.5zM-791 2224h664q3 9 2 21t2 24q11 49 39.5 93t68 77t87 52.5t96.5 19.5t88.5 -19.5t65.5 -52.5t35.5 -77t-1.5 -93
t-39 -93t-67.5 -77t-87 -52t-96.5 -19h-996z" />
    <glyph glyph-name="saraueethai" unicode="&#xe37;" 
d="M-791 2228h508l58 266h209l-58 -266h160l57 266h209l-98 -462h-1184z" />
    <glyph glyph-name="sarauthai" unicode="&#xe38;" 
d="M-590 -909l98 454h-131l41 189h353l-140 -643h-221z" />
    <glyph glyph-name="sarauuthai" unicode="&#xe39;" 
d="M-1102 -266h352l-65 -295q-37 -172 110 -172q148 0 185 172l65 295h222l-66 -295q-15 -71 -48 -135t-87 -112t-130 -76.5t-177 -28.5q-102 0 -165.5 28.5t-96.5 76.5t-39 112t6 135l24 110h-131z" />
    <glyph glyph-name="phinthuthai" unicode="&#xe3a;" 
d="M-573 -438q7 35 25.5 66t44 53.5t56 35.5t62.5 13q35 0 63.5 -13t47 -35.5t25.5 -53.5t-1 -66q-8 -32 -26.5 -60.5t-45.5 -49.5t-60 -33.5t-69 -12.5q-32 0 -58 12.5t-43 33.5t-23 49.5t2 60.5z" />
    <glyph glyph-name="PUCR2005" unicode="&#xe3e;" 
 />
    <glyph glyph-name="bahtthai" unicode="&#xe3f;" horiz-adv-x="1659" 
d="M713 0h-492l443 2089h491l37 184h164l-37 -184q143 1 237.5 -36t146.5 -105.5t65 -164t-7 -210.5q-14 -88 -43 -159t-79 -128t-123.5 -100.5t-176.5 -75.5v-4q103 -14 166.5 -56t94 -106.5t32.5 -147.5t-18 -178q-62 -301 -249 -458t-488 -160l-70 -324h-164zM1360 598
q26 118 12.5 192t-54.5 116t-102.5 58t-130.5 19l-167 -778q95 1 168 25.5t126.5 73t90 121.5t57.5 173zM754 205l168 778h-250l-168 -778h250zM717 1196h250l143 684h-4h-246zM1495 1548q17 78 14.5 138t-28 101t-76.5 62t-131 23l-144 -676q71 8 130 29t105 61.5t79 104
t51 157.5z" />
    <glyph glyph-name="saraethai" unicode="&#xe40;" horiz-adv-x="618" 
d="M193 0l372 1769h234l-373 -1769h-233z" />
    <glyph glyph-name="saraaethai" unicode="&#xe41;" horiz-adv-x="1118" 
d="M193 0l372 1769h234l-373 -1769h-233zM692 0l373 1769h233l-372 -1769h-234z" />
    <glyph glyph-name="saraothai" unicode="&#xe42;" horiz-adv-x="745" 
d="M676 2003q17 78 10 138.5t-33 102t-67.5 62.5t-93.5 21l90 192h778l57 -192h-598q29 -28 52 -61.5t37 -73t17 -84t-7 -93.5l-386 -1818h185l-41 -197h-422z" />
    <glyph glyph-name="saraaimaimuanthai" unicode="&#xe43;" horiz-adv-x="733" 
d="M520 197h185l-41 -197h-422l360 1712q15 71 34 126t45.5 100t62.5 82.5t87 72.5q28 20 57 42t54 45t43 46.5t23 46.5q7 31 -2 55t-31.5 41t-56 26t-74.5 9q-40 0 -80.5 -10.5t-77 -38.5t-67 -75.5t-50.5 -120.5h-221q23 111 77 192t127 134t159 78.5t174 25.5
q78 0 146 -18.5t115 -56.5t67.5 -95t3.5 -133q-12 -62 -33 -100.5t-50.5 -69t-68 -59.5t-86.5 -70q-45 -37 -69 -70t-37 -67t-20 -72t-17 -86z" />
    <glyph glyph-name="saraaimaimalaithai" unicode="&#xe44;" horiz-adv-x="745" 
d="M680 2015q22 99 84 177.5t145 134.5h-590l140 192h758l8 -192q-43 -3 -91 -25t-91.5 -62t-78 -99.5t-51.5 -137.5l-381 -1806h185l-41 -197h-422z" />
    <glyph glyph-name="lakkhangyaothai" unicode="&#xe45;" horiz-adv-x="1253" 
d="M328 1327q16 76 50 139.5t80.5 115t104 90.5t120 65t128.5 39.5t131 13.5q94 0 180 -28.5t147 -86t88 -143.5t3 -201l-406 -1904h-237l393 1855q17 77 9.5 136t-35.5 98.5t-75 60t-108 20.5q-57 0 -109.5 -18t-97 -52.5t-78 -85t-51.5 -114.5h-237z" />
    <glyph glyph-name="maiyamokthai" unicode="&#xe46;" horiz-adv-x="1405" 
d="M606 1278q-8 -37 -8 -73t13 -64.5t42 -46t80 -17.5h33l-41 -196h-33q-63 0 -126.5 21t-112.5 66t-74.5 114.5t-13.5 166.5q13 102 48 193.5t97.5 164.5t156.5 123t226 68l123 -168l184 168q91 -7 152 -33t98 -66.5t53 -93t17.5 -112.5t-8.5 -126.5t-25 -133.5l-381 -1802
h-234l390 1831q9 44 16.5 96t4.5 98t-21.5 79.5t-61.5 41.5l-205 -172q-11 -15 -28.5 -16t-28.5 16l-135 172q-46 -17 -79.5 -47t-57 -69t-38 -85.5t-22.5 -97.5z" />
    <glyph glyph-name="maitaikhuthai" unicode="&#xe47;" 
d="M-610 2384q-6 -35 -7.5 -67.5t7.5 -57.5t30 -40t60 -15q41 0 69.5 17t48 46.5t32.5 69t22 84.5h180q-9 -45 -13.5 -84.5t2 -69t28.5 -46.5t65 -17q40 0 67.5 17.5t45.5 47.5t28 69.5t15 82.5h209q-15 -120 -53 -199t-89.5 -124.5t-112.5 -62.5t-122 -12q-53 3 -91 22
t-62.5 45.5t-37.5 57t-14 56.5q-9 -26 -34 -57.5t-61.5 -59t-84.5 -46t-103 -18.5q-83 0 -137.5 28.5t-83.5 77.5t-34 114t10 137q23 107 73 179t113.5 115t132.5 61t131 18h819l-37 -181h-807q-46 0 -80.5 -15t-59.5 -40.5t-41 -60t-23 -72.5z" />
    <glyph glyph-name="maiekthai" unicode="&#xe48;" 
d="M274 3068h201l-90 -422h-201z" />
    <glyph glyph-name="maithothai" unicode="&#xe49;" 
d="M-193 2646l54 262h-148l37 164h328l-53 -254q160 0 256 68.5t120 185.5h213q-18 -83 -71 -158.5t-134.5 -134t-188 -94.5t-232.5 -39h-181z" />
    <glyph glyph-name="maitrithai" unicode="&#xe4a;" 
d="M131 2646q4 20 9 52t3 62t-13.5 52t-39.5 22q-26 0 -47.5 -19t-38 -47.5t-28 -61t-17.5 -60.5h-135q6 28 9 60.5t-1.5 61t-17.5 47.5t-39 19q-29 0 -50.5 -22t-36 -52t-23.5 -62t-13 -52h-172q21 101 54 169.5t73.5 110t86 59t93.5 17.5q40 0 67.5 -14t44.5 -37.5t25 -54
t10 -62.5q11 34 31 64.5t48 53.5t64 36.5t79 13.5q41 0 74.5 -10t54.5 -34.5t27.5 -64.5t-5.5 -100q26 9 53 32t50.5 55t41.5 72t27 83h185q-14 -63 -47.5 -127t-81.5 -118t-108.5 -93t-127.5 -51h-168z" />
    <glyph glyph-name="maichattawathai" unicode="&#xe4b;" 
d="M434 2871l-49 -229h-188l49 229h-246l29 164h250l45 217h188l-45 -217h254l-33 -164h-254z" />
    <glyph glyph-name="thanthakhatthai" unicode="&#xe4c;" 
d="M709 2695q-80 0 -143.5 -18.5t-110.5 -51.5t-77 -80t-42 -104h-217q17 81 69 156.5t133.5 134t189 94t234.5 37.5z" />
    <glyph glyph-name="nikhahitthai" unicode="&#xe4d;" 
d="M-98 2286q12 55 42.5 103.5t73.5 84.5t94 57t105 21q55 0 99.5 -21t73 -57t38.5 -84.5t-2 -103.5q-11 -54 -41.5 -102t-74 -83.5t-96.5 -56.5t-108 -21q-52 0 -94.5 21t-70.5 56.5t-39 83.5t0 102zM53 2286q-5 -22 0 -41.5t17 -34t30 -23t39 -8.5q23 0 45 8.5t39.5 23
t29.5 34t17 41.5q5 23 1 43t-15.5 35t-30 23.5t-41.5 8.5q-21 0 -42.5 -8.5t-39.5 -23.5t-31 -35t-18 -43z" />
    <glyph glyph-name="yamakkanthai" unicode="&#xe4e;" 
d="M680 2580q-72 0 -126.5 -13.5t-93.5 -41t-63.5 -71t-36.5 -103.5l-8 -24h-33q-74 0 -126.5 -19t-88.5 -53t-58 -80.5t-34 -101.5h-213q14 64 46 129t82.5 120t119 94.5t154.5 53.5q20 63 64.5 114t110.5 87.5t152 57.5t189 24z" />
    <glyph glyph-name="fongmanthai" unicode="&#xe4f;" horiz-adv-x="2032" 
d="M315 881q26 122 81.5 234.5t133.5 210t175.5 178t207.5 137.5t229.5 88.5t241.5 31.5t228 -31.5t191.5 -88.5t148.5 -137.5t99 -178t43.5 -210t-17.5 -234.5q-26 -122 -81 -234.5t-132.5 -210.5t-175 -178.5t-207 -137.5t-228.5 -88.5t-241 -31.5t-228 31.5t-192 88.5
t-149.5 137.5t-100.5 178.5t-45 210.5t18 234.5zM541 885q-19 -90 -13 -174t33.5 -156.5t74.5 -132.5t110.5 -103t142 -66.5t168.5 -23.5t178.5 23.5t171 66.5t155 103t131 132.5t99.5 156.5t59 174q19 90 13.5 173.5t-32.5 156.5t-74.5 132.5t-111 102.5t-142.5 66.5
t-169 23.5t-178.5 -23.5t-170.5 -66.5t-154.5 -102.5t-130.5 -132.5t-99.5 -156.5t-60.5 -173.5zM733 885q22 95 76.5 179.5t130.5 147.5t167.5 99.5t186.5 36.5t172 -36.5t127 -99.5t68.5 -147.5t-2.5 -179.5q-20 -95 -74.5 -179.5t-131 -147.5t-168.5 -99.5t-187 -36.5
t-171.5 36.5t-126 99.5t-68.5 147.5t1 179.5zM930 885q-11 -56 0 -104.5t40 -84.5t73 -57t100 -21q55 0 108 21t96.5 57t73.5 84.5t41 104.5q12 55 2 103.5t-38.5 84.5t-73 57t-99.5 21t-108 -21t-96.5 -57t-75 -84.5t-43.5 -103.5z" />
    <glyph glyph-name="zerothai" unicode="&#xe50;" horiz-adv-x="1790" 
d="M1827 815q-35 -162 -88.5 -287.5t-123 -219t-152 -158t-175.5 -104.5t-195 -57.5t-208 -17.5t-200.5 18t-170.5 58t-131.5 105t-85 158.5t-29.5 218.5t35 286q35 171 114.5 308t197 233t270.5 148t336 52q181 0 311.5 -52t208 -148t99.5 -233t-13 -308zM1581 754
q35 169 18.5 285.5t-73 188.5t-146 104t-200.5 32q-109 0 -212 -32t-190 -104t-153 -188.5t-101 -285.5q-29 -132 -16 -241t65 -186.5t141 -120t212 -42.5t229.5 42.5t191.5 120t145 186.5t89 241z" />
    <glyph glyph-name="onethai" unicode="&#xe51;" horiz-adv-x="1774" 
d="M770 -25q-95 0 -192 9t-186.5 35t-167 73.5t-134.5 124.5l221 160q22 -60 68.5 -102.5t111 -70t143.5 -40t165 -12.5q136 0 259 47.5t222 135t169.5 212.5t102.5 280q26 121 21 223t-49 175t-131.5 114t-225.5 41q-112 0 -206 -31t-164.5 -81t-115.5 -114t-58 -130
q-9 -43 -10.5 -86t9 -82t35.5 -70.5t68 -52t106.5 -26.5t151.5 6l-33 -156q-98 -21 -185 -18t-159 25.5t-126.5 63t-88.5 96t-44.5 124t5.5 147.5q21 99 67 180t109 144t141 108.5t165 75t179 44t183 14.5q164 0 297 -41.5t218.5 -130t116.5 -226.5t-9 -332
q-40 -184 -133 -341t-229 -271.5t-310 -179t-377 -64.5z" />
    <glyph glyph-name="twothai" unicode="&#xe52;" horiz-adv-x="2036" 
d="M426 1294q15 77 18 131t-7.5 87.5t-34.5 49t-62 15.5l82 201q77 0 134.5 -26t91.5 -79t41 -134t-17 -191l-148 -705q-21 -97 1 -181.5t91.5 -147t187 -98.5t286.5 -36q163 0 281 34t198.5 90.5t125.5 130t62 151.5l103 491q13 63 8.5 109.5t-24 79.5t-52.5 53t-76 29
l-262 -193l-172 180q-32 1 -68 -13.5t-69 -45t-60 -77t-41 -109.5l-36 -177q-14 -55 -24 -110.5t-3.5 -100t35.5 -72.5t94 -28h86l-37 -172h-115q-88 0 -145 24t-91 63.5t-48 90t-16 103.5t4.5 103.5t13.5 90.5l37 160q20 94 68.5 178t120.5 149.5t164 108.5t200 55
l155 -163l209 163q105 -6 186.5 -41t133 -93.5t70.5 -137t-1 -170.5l-98 -475q-37 -174 -122 -298.5t-202.5 -204.5t-259.5 -118t-293 -38h-151q-203 0 -348 49.5t-231 140t-113.5 218t4.5 284.5z" />
    <glyph glyph-name="threethai" unicode="&#xe53;" horiz-adv-x="1819" 
d="M938 1327q-45 0 -98 -21t-104.5 -75t-97.5 -147.5t-77 -239.5l-33 -168q-10 -47 -22 -101.5t-18.5 -109t-4 -104.5t20 -88.5t55 -61.5t100.5 -23q15 0 36.5 1t46.5 3t51 5t51 8l-41 -201q-18 -5 -52.5 -9t-74 -6.5t-79.5 -3t-69 2.5q-95 12 -154 50.5t-90 94t-40 123.5
t-4.5 140t17.5 143.5t26 132.5l36 168q39 177 101 305t148.5 214.5t197.5 134t246 62.5l180 -200l287 200q133 -11 222 -59t137.5 -123t58.5 -172.5t-13 -206.5l-209 -995h-241l208 995q15 69 6.5 129.5t-35 105.5t-69 71t-94.5 26l-311 -213z" />
    <glyph glyph-name="fourthai" unicode="&#xe54;" horiz-adv-x="1761" 
d="M1163 1323q-118 0 -218 -27t-177.5 -79.5t-129 -128.5t-73.5 -175l-53 -254q-21 -98 -12.5 -182.5t52.5 -146.5t125 -97.5t204 -35.5h131q-29 15 -56.5 41t-46 65t-24.5 91.5t8 121.5q5 22 15 55.5t30.5 69.5t54.5 72.5t86 65.5t125 47t172 18l-41 -193q-68 0 -108.5 -18
t-63 -43.5t-32 -54t-13.5 -48.5q-12 -58 7.5 -110.5t54 -92.5t75.5 -63.5t72 -23.5h393l-41 -197h-880q-132 0 -227.5 28.5t-159.5 76.5t-100.5 112.5t-52 136.5t-12 147.5t18.5 145.5l49 221q36 169 117.5 293.5t201 206t272.5 121t331 39.5h266q75 0 127.5 17t87 48.5
t54 76t30.5 99.5h250q-17 -78 -53 -157.5t-102.5 -143.5t-170.5 -104.5t-256 -40.5h-307z" />
    <glyph glyph-name="fivethai" unicode="&#xe55;" horiz-adv-x="1761" 
d="M1171 1610q-9 -41 12 -67.5t58 -26.5q43 0 76.5 26.5t42.5 67.5q9 43 -13 70.5t-65 27.5q-37 0 -69 -27.5t-42 -70.5zM1536 1610q-3 -16 -11.5 -36.5t-21.5 -45.5q75 0 127.5 17t87 48.5t54 76t30.5 99.5h250q-17 -78 -53 -157.5t-102.5 -143.5t-170.5 -104.5t-256 -40.5
h-307q-118 0 -218 -27t-177.5 -79.5t-129 -128.5t-73.5 -175l-53 -254q-21 -98 -12.5 -182.5t52.5 -146.5t125 -97.5t204 -35.5h131q-29 15 -56.5 41t-46 65t-24.5 91.5t8 121.5q5 22 15 55.5t30.5 69.5t54.5 72.5t86 65.5t125 47t172 18l-41 -193q-68 0 -108.5 -18
t-63 -43.5t-32 -54t-13.5 -48.5q-12 -58 7.5 -110.5t54 -92.5t75.5 -63.5t72 -23.5h393l-41 -197h-880q-132 0 -227.5 28.5t-159.5 76.5t-100.5 112.5t-52 136.5t-12 147t18.5 146l49 221q28 132 86 242t144 192.5t199 135t251 69.5q-6 19 -6.5 50t2.5 53q12 57 44 106.5
t76.5 87t98 59t109.5 21.5q58 0 104 -21.5t75.5 -59t39.5 -87t-2 -106.5z" />
    <glyph glyph-name="sixthai" unicode="&#xe56;" horiz-adv-x="1843" 
d="M733 1397q37 18 95 43.5t134 49.5t167 41.5t194 20.5q147 4 252.5 -22t177 -75t112 -117.5t56.5 -149t10 -169.5t-26 -179l-33 -156q-27 -95 -69.5 -185.5t-102 -170t-136 -145.5t-171.5 -112.5t-208.5 -70.5t-246.5 -20q-144 4 -254 41.5t-179.5 102t-95.5 153t-3 194.5
q21 101 70.5 174.5t122 120.5t166 69t202.5 21h90l-37 -172h-78q-75 0 -127.5 -16.5t-87 -46.5t-54 -71.5t-30.5 -90.5q-12 -59 5.5 -109t63.5 -87.5t118 -59.5t169 -23q106 -2 206.5 32.5t184 99.5t145.5 158t91 210l33 151q26 127 15.5 225.5t-56.5 165t-127.5 98.5
t-196.5 28q-98 -2 -183.5 -17t-167.5 -44t-166 -73t-179 -104l-184 463l209 115z" />
    <glyph glyph-name="seventhai" unicode="&#xe57;" horiz-adv-x="2146" 
d="M2048 1348q25 110 67.5 191t99.5 134t125.5 79t145.5 26l-8 -201q-38 0 -68.5 -15.5t-55 -49t-43.5 -87.5t-34 -131l-94 -442q-20 -92 -56.5 -186t-89 -182.5t-121.5 -168.5t-152.5 -146t-181.5 -113.5t-210 -71.5l-164 147q72 60 118 121.5t75 126.5t47 136t35 149
l37 176q27 126 27.5 215t-20.5 145.5t-61 84t-94 30.5l-254 -209l-155 213q-45 0 -99 -26t-106.5 -84t-98.5 -151t-73 -227l-37 -159q-8 -41 -17 -92t-13 -104t0.5 -103t24 -89t56 -63t96.5 -24q14 0 32 0.5t36.5 2t35 4t27.5 5.5l-36 -197q-17 -5 -44.5 -10t-59 -8.5
t-65.5 -3.5t-65 6q-87 20 -143 61t-87.5 95.5t-43.5 119t-10.5 132t12 134.5t22.5 126l33 163q73 335 249 512.5t443 208.5l135 -200l234 196q150 -15 237.5 -71.5t125.5 -147t33.5 -213.5t-36.5 -272l-37 -168q-12 -54 -26 -112t-32.5 -114t-44 -107.5t-60.5 -92.5
q53 28 99.5 71t85.5 94t71 106.5t56 110.5t40 105t24 90z" />
    <glyph glyph-name="eightthai" unicode="&#xe58;" horiz-adv-x="1827" 
d="M1130 1315q-118 0 -209.5 -33.5t-157.5 -89t-107 -128.5t-58 -151l-53 -249l-25 -119q-15 -69 -6 -130.5t36.5 -107t69.5 -72t93 -26.5l299 217l217 -217q55 0 103 15t87.5 51.5t70 99t50.5 157.5q9 40 12 81.5t-7.5 77.5t-39 62.5t-80.5 37.5q-15 3 -33 3.5t-36 0.5
l33 168h73q89 -6 150 -27t99.5 -53t57.5 -73t24.5 -87t0 -96t-15.5 -99q-29 -134 -78 -235.5t-123.5 -170t-177.5 -103.5t-240 -35l-201 196l-266 -196q-134 9 -223.5 57t-139.5 123.5t-61.5 173.5t11.5 207l24 127l45 196q32 154 103 276t179 207.5t252 131t322 45.5h357
q75 0 127 17t86.5 48.5t54.5 76t31 99.5h249q-11 -52 -30.5 -106t-50 -104.5t-74.5 -94.5t-104.5 -77.5t-139 -52.5t-178.5 -19h-402z" />
    <glyph glyph-name="ninethai" unicode="&#xe59;" horiz-adv-x="1876" 
d="M1720 1528q75 0 124.5 17t81 48.5t49 76t28.5 99.5h246q-11 -52 -29 -105.5t-46.5 -103t-70 -92.5t-100 -75.5t-136.5 -51t-179 -18.5h-58q-51 0 -84 -4t-56.5 -26.5t-41 -69.5t-35.5 -133l193 -1090h-250l-189 1090q-15 58 -33.5 105.5t-45 81.5t-63.5 52.5t-91 18.5
q-62 0 -113 -26.5t-94.5 -88t-80 -162t-68.5 -248.5q-2 -9 -7.5 -35.5t-12 -56.5t-12.5 -57.5t-9 -38.5q-8 -45 -17.5 -95t-13.5 -99.5t0 -94t22.5 -79t53.5 -54.5t94 -20q28 0 56.5 3t49.5 9l-8 -197q-18 -5 -45 -9t-58 -6.5t-64.5 -3t-65.5 2.5q-93 12 -151 47.5t-89 87
t-40 116t-4.5 134.5t18.5 142t28 140q1 6 6 29t10.5 49t10 47.5t6.5 26.5q37 178 86.5 316t124.5 232.5t181 143.5t255 49q59 0 114 -3.5t95 -24.5q24 -14 43 -30t34 -36.5t27 -47.5t23 -62q17 76 48.5 114t73 52.5t90 14t99.5 -0.5h90z" />
    <glyph glyph-name="angkhankhuthai" unicode="&#xe5a;" horiz-adv-x="2011" 
d="M1098 0l225 1065q-77 -77 -189 -120.5t-245 -43.5q-138 0 -236 33t-155.5 94t-75 147.5t3.5 192.5q16 74 49.5 132.5t77.5 103t96 76t106.5 51.5t109 29t102.5 9h204l-36 -184h-136q-20 0 -50 -2.5t-64 -11t-68.5 -23.5t-65 -39.5t-54 -60t-33.5 -84.5q-9 -48 -5 -95.5
t31.5 -85.5t84 -61.5t151.5 -23.5q196 0 316.5 76.5t154.5 242.5l73 352h234l-373 -1769h-233zM1597 0l373 1769h234l-373 -1769h-234z" />
    <glyph glyph-name="khomutthai" unicode="&#xe5b;" horiz-adv-x="3707" 
d="M3146 954q-31 -34 -71.5 -78.5t-83 -93.5t-84 -99.5t-73.5 -96.5q-15 55 -33.5 112t-38 112t-39.5 104.5t-40 89.5q-40 -40 -88.5 -93t-99 -116t-100.5 -134.5t-93 -148.5q-11 75 -30.5 152.5t-44.5 149.5t-52 135.5t-53 111.5q-31 -145 -91 -277t-142.5 -245.5
t-184.5 -206t-217.5 -158.5t-241 -101.5t-254.5 -35.5q-136 0 -244 35.5t-189 97t-134.5 145.5t-81.5 181.5t-30 204t20 212.5q19 94 61 191t103.5 188t140.5 170.5t172.5 138.5t200 93.5t223.5 34.5q109 0 192.5 -24t143 -67t97 -101.5t55 -126.5t17 -143.5t-17.5 -152.5
l-217 -4q20 92 10.5 163.5t-45.5 121t-97.5 76.5t-145.5 32q-125 0 -232.5 -48t-192 -131t-143 -194t-84.5 -237q-26 -122 -6 -233.5t82 -197.5t165 -137t243 -51q132 0 244.5 39.5t206.5 110t170.5 167.5t136.5 212.5t103.5 244.5t72.5 263l188 94q37 -52 70.5 -113.5
t61.5 -124t49 -121t32 -104.5q34 40 77.5 91.5t91.5 106t98 109.5t98 103q21 -48 43 -102.5t42 -109.5t38 -105t32 -89q28 31 61 67t64.5 69.5t58.5 62t42 43.5h516l98 -234h-606z" />
    <glyph glyph-name="saraulowthai" unicode="&#xf718;" 
d="M-688 -1372l98 454h-131l37 185h352l-135 -639h-221z" />
    <glyph glyph-name="sarauulowthai" unicode="&#xf719;" 
d="M-1204 -733h352l-61 -295q-37 -172 110 -172q148 0 185 172l61 295h221l-61 -295q-17 -71 -50 -135t-86.5 -112t-129 -76.5t-177.5 -28.5q-101 0 -165 28.5t-97.5 76.5t-40 112t7.5 135l25 110h-131z" />
    <glyph glyph-name="phinthulowthai" unicode="&#xf71a;" 
d="M-668 -877q8 36 27 66.5t45 53t57.5 35.5t63.5 13q35 0 63 -13t45.5 -35.5t23.5 -53t-1 -66.5q-6 -32 -25 -60.5t-46.5 -49.5t-61 -33t-68.5 -12q-32 0 -57.5 12t-42 33t-23 49.5t-0.5 60.5z" />
    <glyph glyph-name="rulakkhangyao" unicode="&#xf881;" horiz-adv-x="2339" 
d="M1245 -573h-237l397 1871q14 66 0 121t-54 94.5t-105 61.5t-152 22q-74 0 -141.5 -14t-125 -38.5t-103.5 -59t-77 -76.5q11 -12 18 -35t9.5 -51.5t1 -61.5t-7.5 -65l-213 -999h188l-41 -197h-426l254 1208q8 37 10.5 70.5t-2.5 60t-19 44.5t-38 26q67 98 151.5 170
t181 119t203 69.5t218.5 22.5q69 0 137.5 -11.5t128.5 -36t107 -61.5t73 -88q46 51 99 88t110 61.5t116 36t117 11.5q94 0 180 -28.5t147.5 -86t88.5 -143.5t2 -201l-405 -1904h-234l406 1904q12 58 1.5 107t-40.5 84.5t-78 55t-109 19.5q-57 0 -111.5 -20t-100 -58.5
t-79.5 -94t-49 -126.5z" />
    <glyph glyph-name="lulakkhangyao" unicode="&#xf882;" horiz-adv-x="2331" 
d="M1241 -573h-237l397 1876q17 75 4.5 130.5t-51.5 91.5t-104 54t-152 18q-74 0 -140 -14t-122 -38.5t-99.5 -59t-72.5 -76.5q10 -12 16.5 -35t8 -51.5t-0.5 -61.5t-8 -65l-254 -1196h-410l41 197h176l213 1011q8 37 10 70.5t-4 60t-20 44.5t-39 26q67 98 150 170t178 119
t200.5 69.5t217.5 22.5q69 0 137 -11t127 -34t105.5 -58.5t72.5 -84.5q43 49 97 84.5t112.5 58.5t119.5 34t118 11q93 0 178 -27t144 -83t84 -144t-1 -209l-401 -1900h-238l401 1896q17 77 8.5 129.5t-38 84.5t-78 46t-109.5 14q-57 0 -110.5 -18t-99 -54t-79.5 -91.5
t-51 -130.5z" />
    <glyph glyph-name="lochula.short" unicode="&#xf71d;" horiz-adv-x="1720" 
d="M1401 0h-311l-9 991l33 242l-70 -242l-421 -991h-308l136 1769h245l-127 -1134l-45 -377l156 377l369 819h233l12 -819v-377l123 377l193 569q27 86 45 157.5t12.5 123t-41 80t-115.5 28.5l13 168q73 1 143.5 15.5t129.5 44.5t103.5 77t65.5 113h270q-29 -83 -76 -143.5
t-105.5 -102.5t-124.5 -66.5t-132 -35.5q48 -14 76 -48.5t36.5 -86.5t-3 -120.5t-43.5 -150.5z" />
    <glyph glyph-name="uni25CC" unicode="&#x25cc;" horiz-adv-x="1966" 
d="M868 524l-147 -41l78 135q24 -53 69 -94zM1167 1208l99 131l32 -127q-24 5 -53 5q-37 0 -78 -9zM1135 459l-82 -123l-37 123q33 -8 65 -8q29 0 54 8zM1552 901l111 -65l-135 -54q8 21 16 54q8 32 8 65zM774 774l-119 66l144 65q-8 -33 -17 -69q-8 -33 -8 -62zM901 1065
l-4 135l119 -49q-66 -33 -115 -86zM1417 602l13 -119l-119 37q57 33 106 82zM1442 1151l160 49l-82 -139q-29 53 -78 90z" />
    <glyph glyph-name="yamakkanleftthai" 
d="M279 2580q-74 0 -128.5 -13.5t-93 -41t-62.5 -71t-36 -103.5l-8 -24h-33q-74 0 -126.5 -19t-88.5 -53t-58 -80.5t-34 -101.5h-213q14 64 45.5 129t81.5 120t118.5 94.5t155.5 53.5q41 127 173.5 201.5t342.5 81.5z" />
    <glyph glyph-name="multiply" unicode="&#xd7;" horiz-adv-x="1532" 
d="M778 668l-364 549l164 126l360 -532l582 532l114 -126l-602 -549l369 -541l-172 -131l-352 528l-582 -528l-115 131z" />
    <glyph glyph-name="ZWSP" unicode="&#x200b;" 
 />
    <glyph glyph-name="yoyingthai" unicode="&#xe0d;" horiz-adv-x="2404" 
d="M2257 135q-21 -97 -47.5 -171t-55 -131t-59 -99t-59.5 -74q-53 -60 -112 -101t-123 -65.5t-131 -35.5t-134 -11q-97 0 -181 23.5t-144 72t-91 123.5t-22 178h225q-3 -54 18 -92.5t56.5 -63t81.5 -36.5t94 -12q100 0 174.5 32.5t126.5 84.5t83.5 116t45.5 127l41 197
q-48 -57 -98.5 -96t-106 -63.5t-116 -35t-126.5 -10.5q-54 0 -107 11.5t-99.5 35t-83.5 59t-60 84t-29 110.5t11 138l180 844q15 75 1 135t-53.5 102t-102.5 64t-144 22q-68 0 -133 -14t-122.5 -38.5t-104.5 -59t-78 -76.5q10 -12 17 -35t10 -51.5t1 -61.5t-8 -65l-213 -999
h189l-41 -197h-426l254 1208q7 37 9.5 70.5t-2.5 60t-18.5 44.5t-37.5 26q67 98 152.5 170t181.5 119t200.5 69.5t210.5 22.5q120 0 222.5 -31t174 -89.5t103 -144t8.5 -194.5l-176 -827q-15 -69 -11 -128t28.5 -101.5t69.5 -66.5t113 -24q80 0 151.5 32.5t128.5 86.5
t96.5 123t54.5 143l253 1200h234z" />
    <glyph glyph-name="Euro" unicode="&#x20ac;" horiz-adv-x="1679" 
d="M283 1348h241q31 99 71.5 195.5t94.5 183.5t122 161t154 127.5t191 84t232 30.5q155 0 263 -52t168.5 -142t73.5 -212t-22 -262h-242q18 94 15.5 177.5t-35.5 146t-102.5 99t-184.5 36.5q-77 0 -141.5 -23.5t-118.5 -65t-97.5 -97t-79 -119t-63.5 -132.5t-49 -136h553
l-29 -152h-561l-49 -229h561l-32 -152h-558q-12 -76 -19 -152.5t-3 -147t22 -131.5t55 -106.5t95.5 -71.5t144.5 -26q124 0 214.5 46.5t153 125t101 182.5t60.5 220l246 20q-19 -106 -52.5 -207.5t-83.5 -191t-116 -164.5t-148.5 -129.5t-182 -84.5t-216.5 -30
q-142 0 -241.5 33t-163.5 91.5t-97 138.5t-44 174t-3.5 198.5t25.5 212.5h-234l33 152h229l49 229h-229z" />
    <glyph glyph-name="saraamleft" horiz-adv-x="1253" 
d="M328 1327q16 76 50 139.5t80.5 115t104 90.5t120 65t128.5 39.5t131 13.5q94 0 180 -28.5t147 -86t88 -143.5t3 -201l-283 -1331h-237l270 1282q17 77 9.5 136t-35.5 98.5t-75 60t-108 20.5q-57 0 -109.5 -18t-97 -52.5t-78 -85t-51.5 -114.5h-237zM-623 2331
q12 55 43.5 103.5t75 84.5t95.5 57t106 21q55 0 99 -21t72.5 -57t39 -84.5t-1.5 -103.5q-11 -54 -41.5 -102t-74 -83.5t-96.5 -56.5t-108 -21q-54 0 -97 21t-71.5 56.5t-40 83.5t-0.5 102zM-467 2331q-5 -22 0 -41.5t17 -34t30 -23t39 -8.5q23 0 45 8.5t39.5 23t29.5 34
t17 41.5q6 23 2.5 43t-15.5 35t-31 23.5t-42 8.5q-21 0 -42 -8.5t-39 -23.5t-31 -35t-19 -43z" />
    <glyph glyph-name="uni0E33.alt1" horiz-adv-x="1253" 
d="M328 1327q16 76 50 139.5t80.5 115t104 90.5t120 65t128.5 39.5t131 13.5q94 0 180 -28.5t147 -86t88 -143.5t3 -201l-283 -1331h-237l270 1282q17 77 9.5 136t-35.5 98.5t-75 60t-108 20.5q-57 0 -109.5 -18t-97 -52.5t-78 -85t-51.5 -114.5h-237zM-623 2331
q12 55 43.5 103.5t75 84.5t95.5 57t106 21q55 0 99 -21t72.5 -57t39 -84.5t-1.5 -103.5q-11 -54 -41.5 -102t-74 -83.5t-96.5 -56.5t-108 -21q-54 0 -97 21t-71.5 56.5t-40 83.5t-0.5 102zM-467 2331q-5 -22 0 -41.5t17 -34t30 -23t39 -8.5q23 0 45 8.5t39.5 23t29.5 34
t17 41.5q6 23 2.5 43t-15.5 35t-31 23.5t-42 8.5q-21 0 -42 -8.5t-39 -23.5t-31 -35t-19 -43z" />
    <glyph glyph-name="thothannobasethai" unicode="&#xf700;" horiz-adv-x="1348" 
d="M463 864h-184l36 172h365l65 -835q67 129 119 229t93 180t72.5 144.5t56.5 123t45.5 115t39.5 121.5q29 94 35.5 181t-14.5 154t-72 107.5t-137 40.5q-152 0 -250.5 -86.5t-138.5 -257.5h-250q23 115 80 213.5t144 170.5t203 112.5t257 40.5q65 0 129.5 -12t120.5 -37
q51 7 88.5 25.5t64 41t41 46.5t19.5 42h262q-9 -38 -35.5 -80t-69.5 -80t-102 -68.5t-133 -45.5q23 -37 37.5 -83.5t17.5 -103.5t-6 -126t-32 -150q-21 -71 -46 -138t-58.5 -140.5t-77 -158t-100 -189.5t-128 -236t-160.5 -297h-319z" />
    <glyph glyph-name="A" unicode="A" horiz-adv-x="1651" 
d="M1102 2089h332l176 -2089h-271l-45 598h-704l-291 -598h-266zM1229 1679v242l-103 -242l-430 -864h590z" />
    <glyph glyph-name="B" unicode="B" horiz-adv-x="1626" 
d="M909 205q98 0 172 23.5t128 72t89.5 122.5t57.5 175q23 104 15.5 173.5t-36 112t-75.5 63.5t-104 29t-121 7.5t-126 -0.5h-233l-168 -778h401zM721 1196h233q111 0 199.5 10t155 46t112 106t70.5 190q20 98 12 163.5t-53 104t-131.5 53t-224.5 11.5h-230zM225 0l443 2089
h643q147 3 242.5 -33.5t147.5 -105t64 -164.5t-8 -213q-14 -88 -43 -159t-79 -128t-123.5 -100.5t-176.5 -75.5v-4q103 -14 166.5 -56t94 -106.5t32.5 -147.5t-18 -178q-65 -316 -264 -473t-527 -145h-594z" />
    <glyph glyph-name="C" unicode="C" horiz-adv-x="1630" 
d="M1548 1462q18 94 15.5 177.5t-35.5 146t-102.5 99t-184.5 36.5q-79 0 -145 -25t-120.5 -68.5t-98 -101.5t-78.5 -124.5t-62 -137.5t-47.5 -140.5t-36 -134t-26.5 -116.5q-12 -60 -26.5 -130t-26 -144t-17 -148.5t0 -143.5t24 -128.5t55 -103.5t94 -69.5t141.5 -25.5
q83 0 151 22.5t122.5 63t96.5 96.5t73.5 122t53.5 139.5t36 150.5h242q-19 -106 -52.5 -207.5t-83.5 -191t-116 -164.5t-148.5 -129.5t-182 -84.5t-216.5 -30q-128 0 -220.5 27t-156 75.5t-101 115.5t-55 147t-18.5 170.5t9.5 185t28.5 191.5t38 190q24 118 59.5 242.5
t87 242t122 222.5t166.5 183.5t219 124.5t280 46q155 0 263 -52t168.5 -142t73.5 -212t-22 -262h-242z" />
    <glyph glyph-name="D" unicode="D" horiz-adv-x="1786" 
d="M225 0l443 2089h618q172 0 286.5 -40.5t184 -112t99.5 -169.5t32.5 -213.5t-16 -244t-45.5 -260.5q-28 -128 -67 -255.5t-94 -244t-127.5 -217t-168 -174.5t-216 -116t-269.5 -42h-660zM508 205h405q135 0 238.5 50t183.5 157.5t140.5 275t109.5 402.5q12 57 22.5 114
t18 110.5t12 100.5t4.5 84q0 92 -21.5 163t-66.5 119.5t-115.5 73.5t-168.5 25h-406z" />
    <glyph glyph-name="E" unicode="E" horiz-adv-x="1475" 
d="M229 0l443 2089h1118l-45 -209h-877l-147 -692h823l-45 -209h-823l-164 -774h881l-41 -205h-1123z" />
    <glyph glyph-name="F" unicode="F" horiz-adv-x="1348" 
d="M229 0l443 2089h1048l-45 -209h-807l-143 -684h754l-45 -213h-754l-209 -983h-242z" />
    <glyph glyph-name="G" unicode="G" horiz-adv-x="1798" 
d="M1569 0h-189l70 332h-4q-46 -89 -110 -157.5t-140.5 -114.5t-162.5 -69.5t-177 -23.5q-164 0 -270.5 47t-168.5 128t-86.5 188.5t-23.5 228.5t20.5 249t45.5 249q27 122 64 248t91 244.5t127.5 222.5t171.5 182t223.5 123t284.5 45q158 0 272.5 -45t182 -128.5t86 -201.5
t-15.5 -264h-250q21 95 15 173.5t-43 135t-106 88t-173 33.5q-120 2 -211.5 -36t-161 -104t-119 -154t-85 -184.5t-60 -196t-43.5 -189.5q-12 -59 -26 -126.5t-25 -138.5t-16 -142.5t0 -137.5t23.5 -124t54.5 -101t92.5 -69.5t137.5 -29.5q112 -5 198 20.5t152 74
t113.5 115.5t81.5 144.5t57.5 162t40.5 167.5h-491l45 205h733z" />
    <glyph glyph-name="H" unicode="H" horiz-adv-x="1802" 
d="M229 0l443 2089h237l-184 -872h864l185 872h241l-442 -2089h-242l213 1008h-864l-213 -1008h-238z" />
    <glyph glyph-name="I" unicode="I" horiz-adv-x="819" 
d="M287 0l442 2089h246l-443 -2089h-245z" />
    <glyph glyph-name="J" unicode="J" horiz-adv-x="1307" 
d="M446 659l-28 -127q-14 -69 -22 -134.5t6 -116.5t59 -82t137 -31t153 31t99.5 82t60 116.5t35.5 134.5l332 1557h242l-336 -1577q-35 -164 -95.5 -271t-142 -169.5t-182 -87.5t-215.5 -25q-65 0 -123.5 9.5t-108 32t-87 60.5t-58.5 95q-23 63 -24 134.5t8.5 140
t24.5 128.5t24 100h241z" />
    <glyph glyph-name="K" unicode="K" horiz-adv-x="1638" 
d="M229 0l443 2089h237l-221 -1040l1045 1040h303l-893 -877l471 -1212h-303l-381 1008l-303 -283l-152 -725h-246z" />
    <glyph glyph-name="L" unicode="L" horiz-adv-x="1454" 
d="M229 0l443 2089h241l-401 -1884h909l-41 -205h-1151z" />
    <glyph glyph-name="M" unicode="M" horiz-adv-x="2314" 
d="M2097 2089h430l-442 -2089h-246l365 1724l57 263h-4q-43 -90 -75 -165.5t-60 -133.5l-824 -1688h-290l-103 1716q-6 53 -7 118.5t-1 152.5h-4l-53 -271l-365 -1716h-246l443 2089h434l94 -1614q1 -24 0.5 -59.5t-3 -77.5t-7 -89.5t-10.5 -96.5h4q15 38 32.5 83.5t34 90
t32.5 84t28 65.5z" />
    <glyph glyph-name="N" unicode="N" horiz-adv-x="1810" 
d="M1782 2089h241l-442 -2089h-397l-283 1659q-12 68 -13.5 150t1.5 178h-4q-16 -81 -33 -162t-33 -158l-352 -1667h-238l443 2089h393l278 -1692q13 -49 14.5 -111.5t10.5 -133.5h4q13 55 23 114.5t22 118.5z" />
    <glyph glyph-name="O" unicode="O" horiz-adv-x="1798" 
d="M401 1090q26 120 61 243.5t86.5 239t122.5 217t168.5 177t225 119.5t291.5 44q160 0 266 -44t169.5 -119.5t90.5 -177t28.5 -217t-16 -239t-43.5 -243.5q-32 -145 -71 -286t-93 -268t-125.5 -234t-168.5 -185t-222 -122t-286 -44t-267.5 44t-170 122t-90 185t-26.5 234
t20 267.5t50 286.5zM1597 1085q26 116 40.5 223t13.5 199.5t-20.5 169t-61 130.5t-108.5 84t-163 30q-93 0 -170 -30t-140.5 -84t-114.5 -130.5t-91.5 -169t-71.5 -199.5t-55 -223q-49 -227 -69.5 -400t5.5 -289.5t106.5 -176t232.5 -59.5q150 0 255 59.5t180 176t129 289.5
t103 400z" />
    <glyph glyph-name="P" unicode="P" horiz-adv-x="1622" 
d="M705 1094h253q84 1 158 6.5t137.5 20.5t116.5 42.5t94.5 72.5t71.5 110.5t49 156.5q26 126 2 202t-86.5 115.5t-156 51t-205.5 8.5h-267zM229 0l443 2089h598q93 0 177.5 -12.5t155.5 -40.5t125 -73t86 -110t39.5 -150.5t-14.5 -195.5q-29 -133 -78.5 -230.5t-118 -166
t-155.5 -112t-190.5 -67.5t-223.5 -33t-254 -9h-155l-189 -889h-246z" />
    <glyph glyph-name="Q" unicode="Q" horiz-adv-x="1790" 
d="M393 1090q26 120 61.5 243t88 237.5t124.5 215t170.5 175.5t226.5 118t292 43q160 0 266.5 -43t171 -118t92.5 -175.5t30.5 -215t-14.5 -237.5t-42 -243q-28 -120 -58.5 -233t-69.5 -217.5t-90 -198.5t-118 -175l205 -192l-156 -148l-205 189q-93 -68 -212 -108t-267 -40
q-161 0 -268.5 43t-172.5 119t-93 181t-29.5 230t18 264.5t49.5 285.5zM1606 1085q26 116 39.5 222t11.5 198t-22.5 167.5t-63 129t-110 82.5t-163.5 29q-93 0 -171 -29t-142.5 -82.5t-116.5 -129t-93 -167.5t-73 -198t-55 -222q-49 -227 -67.5 -397t9.5 -283t110.5 -169
t234.5 -56q87 0 155.5 19t127.5 59l-177 168l156 147l176 -163q39 58 71 127.5t60 153t53 181.5t50 213z" />
    <glyph glyph-name="R" unicode="R" horiz-adv-x="1774" 
d="M714 1126h397q30 0 74.5 3.5t95 16t104 37.5t100.5 68t84 108t56 157q16 89 5 150.5t-41 102t-74 63t-93.5 33.5t-99.5 13t-92 2h-356zM475 0h-246l444 2089h586q115 0 213 -10.5t175.5 -37t133 -70t85 -109.5t31.5 -156.5t-28 -210.5q-21 -92 -67.5 -172t-114 -140.5
t-153 -99t-184.5 -47.5q104 -9 170.5 -34.5t101.5 -72.5t42 -117.5t-8 -168.5q-13 -89 -22 -158.5t-15 -125t-9 -99t-3 -80.5t2.5 -63.5t8 -47t14 -37t19.5 -32.5h-283q-7 33 -8.5 77.5t0.5 95t7 103t11 100.5t12.5 88.5t12.5 67.5q16 78 13 148.5t-34.5 123t-96.5 83.5
t-172 31h-443z" />
    <glyph glyph-name="S" unicode="S" horiz-adv-x="1630" 
d="M1503 1540q26 81 20 151t-42.5 121t-102 80t-157.5 29q-125 0 -207 -29.5t-133 -77t-77 -108t-38 -121.5q-12 -54 -7.5 -97.5t25 -78.5t54.5 -63.5t80 -51.5l372 -196q94 -48 163 -102.5t110 -120.5t52.5 -144.5t-9.5 -173.5q-31 -149 -103.5 -260.5t-179 -185.5
t-243 -111t-294.5 -37q-89 0 -174 14t-157 51t-125.5 101.5t-79.5 165.5q-9 40 -7.5 89.5t9 101t17.5 102t18 92.5h237q-27 -117 -33.5 -210t24.5 -158.5t106 -100.5t210 -35q88 0 172 20.5t154 63.5t120.5 109.5t70.5 158.5q17 83 4.5 137.5t-44 92.5t-77 64.5t-96.5 54.5
l-418 225q-145 76 -193.5 193.5t-11.5 289.5q28 129 93 230.5t159.5 171t214 106.5t254.5 37q152 0 267 -37t184.5 -110.5t88 -184.5t-23.5 -258h-246z" />
    <glyph glyph-name="T" unicode="T" horiz-adv-x="1462" 
d="M483 2089h1385l-45 -209h-570l-397 -1880h-242l398 1880h-574z" />
    <glyph glyph-name="U" unicode="U" horiz-adv-x="1794" 
d="M672 2089h246l-316 -1483q-10 -41 -16.5 -88.5t-2 -95t23.5 -91t59 -77.5t105.5 -54t162.5 -20t171 20t128.5 54t92 77.5t62.5 91t39.5 95t22.5 88.5l315 1483h242l-332 -1565q-31 -141 -101.5 -246t-173 -174t-232.5 -103t-279 -34t-265 34t-189.5 103t-99.5 174t5 246z
" />
    <glyph glyph-name="V" unicode="V" horiz-adv-x="1675" 
d="M1794 2089h274l-1089 -2089h-299l-197 2089h267l122 -1626l-12 -291h4l119 291z" />
    <glyph glyph-name="W" unicode="W" horiz-adv-x="2474" 
d="M840 0h-303l-37 2089h270v-1458q0 -63 -3.5 -119.5t-9.5 -111t-14.5 -109.5t-17.5 -115h4q34 118 71.5 230.5t84.5 224.5l643 1458h303l-8 -1458q1 -63 -1.5 -120t-8.5 -112t-14 -110t-17 -113h4q40 120 76.5 232t83.5 223l643 1458h270l-967 -2089h-303v1417
q0 52 3.5 105t10.5 113t15.5 130t19.5 156h-8q-21 -74 -41 -140.5t-39.5 -128.5t-40 -120t-43.5 -115z" />
    <glyph glyph-name="X" unicode="X" horiz-adv-x="1630" 
d="M918 1081l-414 1008h287l303 -815l639 815h286l-831 -1008l405 -1081h-299l-295 877l-667 -877h-291z" />
    <glyph glyph-name="Y" unicode="Y" horiz-adv-x="1659" 
d="M1040 1036l750 1053h270l-946 -1282l-168 -807h-246l168 807l-393 1282h266z" />
    <glyph glyph-name="Z" unicode="Z" horiz-adv-x="1507" 
d="M90 0l41 197l1409 1683h-1024l45 209h1278l-45 -201l-1409 -1683h1069l-41 -205h-1323z" />
    <glyph glyph-name="exclam" unicode="!" horiz-adv-x="979" 
d="M664 1446l135 643h266l-135 -643l-271 -938h-131zM356 0l58 274h266l-57 -274h-267z" />
    <glyph glyph-name="quotedbl" unicode="&#x22;" horiz-adv-x="733" 
d="M561 2060h156l-131 -630h-156zM889 2060h155l-131 -630h-155z" />
    <glyph glyph-name="numbersign" unicode="#" horiz-adv-x="1634" 
d="M561 672h-295l90 172h299l164 311h-303l94 172h299l365 672h176l-365 -672h230l356 672h176l-360 -672h307l-90 -172h-315l-156 -311h303l-86 -172h-315l-353 -672h-176l352 672h-221l-360 -672h-172zM1057 844l164 311h-226l-164 -311h226z" />
    <glyph glyph-name="dollar" unicode="$" horiz-adv-x="1462" 
d="M635 -37q-160 8 -257 61t-141 143.5t-40.5 213.5t45.5 270h233q-13 -59 -24 -117t-13 -110t7 -97t36 -78.5t74 -53.5t121 -23l172 795q-94 41 -178 89t-142.5 113t-83 152t1.5 207q25 115 82 213t140 171.5t188.5 118.5t228.5 54l37 188h164l-37 -188q126 -8 211 -49
t130.5 -112t53 -170t-21.5 -222h-233q21 63 24 125.5t-17.5 112.5t-67 80.5t-124.5 29.5l-151 -721q83 -39 152 -73t123 -70.5t91.5 -78t58 -94.5t22 -121t-16.5 -157q-29 -134 -88 -243t-146 -187.5t-201 -124t-253 -51.5l-58 -283h-164zM1217 512q18 84 11 142.5
t-36 101.5t-79 74.5t-118 62.5l-155 -721q83 0 146.5 25t109.5 70t76 107.5t45 137.5zM709 1565q-15 -71 -6.5 -122.5t35 -91t69 -69.5t94.5 -57l139 651q-52 -6 -104 -24.5t-97 -54.5t-79 -92.5t-51 -139.5z" />
    <glyph glyph-name="percent" unicode="%" horiz-adv-x="2318" 
d="M774 0h-196l1331 2003h184zM2241 541q-31 -143 -83 -240.5t-120.5 -157.5t-152 -86t-177.5 -24q-71 1 -131.5 28t-99 87t-48.5 158.5t21 242.5q20 95 57.5 181t98 151.5t147 104t205.5 38.5q77 0 131 -19t89.5 -52.5t54.5 -79.5t24.5 -99.5t0.5 -113t-17 -119.5z
M1778 213q57 0 95.5 28.5t64 71.5t41 92t24.5 91q7 32 14.5 70t11 76.5t1 75t-16 64.5t-39.5 45t-69 17t-76 -17t-58 -45t-43 -64.5t-31 -75t-22 -76.5t-16 -70q-9 -42 -13.5 -91t5.5 -92t39 -71.5t88 -28.5zM958 1970q76 0 129.5 -19.5t88.5 -54t53.5 -82t23.5 -102.5
t-1 -115.5t-19 -121.5q-29 -138 -75 -236t-109.5 -158.5t-146 -85t-185.5 -16.5q-88 6 -152 32.5t-99.5 84.5t-40.5 153t26 238q20 95 57.5 182.5t98 154t147 106.5t204.5 40zM774 1155q57 0 96.5 28.5t66 71.5t42.5 93.5t25 93.5q7 31 14.5 68.5t10.5 76.5t0 75.5t-17 65
t-40.5 45.5t-70.5 17q-41 0 -72.5 -17t-55.5 -45.5t-41.5 -65t-30 -75.5t-21.5 -76.5t-16 -68.5q-9 -43 -15.5 -93.5t1.5 -93.5t36 -71.5t88 -28.5z" />
    <glyph glyph-name="ampersand" unicode="&#x26;" horiz-adv-x="1954" 
d="M995 1032q-81 -49 -149 -95t-120.5 -99t-89 -118t-54.5 -151q-19 -90 -2 -163t63.5 -124t119.5 -78.5t167 -27.5q55 0 110 15t107 41.5t100.5 61.5t91.5 75zM1130 1307q57 35 109.5 70.5t95.5 77t74 92t45 116.5q9 43 4.5 84t-24 73.5t-54.5 52t-86 19.5q-49 0 -91.5 -19
t-75.5 -50t-55.5 -70.5t-31.5 -81.5q-11 -54 -5.5 -102t20 -92.5t35 -86.5t40.5 -83zM1511 586q59 96 100 192.5t72 192.5h218q-44 -149 -111 -295t-172 -279l233 -397h-295l-126 201q-124 -121 -268.5 -179.5t-305.5 -58.5q-149 0 -261 43t-181 122.5t-92 192t6 252.5
q26 120 80.5 209t131.5 160t174 129t208 117q-32 55 -59.5 106t-44 104t-19.5 112.5t12 131.5q18 86 63.5 164t111.5 137.5t150 94.5t179 35q101 0 180 -28.5t129.5 -81.5t69 -129t-1.5 -171q-19 -86 -68 -160t-116.5 -137.5t-146.5 -116.5t-157 -98z" />
    <glyph glyph-name="quotesingle" unicode="'" horiz-adv-x="733" 
d="M725 2060h152l-132 -630h-151z" />
    <glyph glyph-name="parenleft" unicode="(" horiz-adv-x="979" 
d="M1274 2089q-46 -65 -101.5 -139.5t-114.5 -163.5t-119.5 -194.5t-117.5 -232.5t-106.5 -277t-87.5 -328q-42 -191 -58 -363t-5.5 -336t47.5 -325t102 -328h-168q-65 152 -114 309t-75 321.5t-24 337t41 355.5q30 137 69 259.5t89 235.5t110.5 219.5t133.5 212
t158.5 213.5t184.5 224h156z" />
    <glyph glyph-name="parenright" unicode=")" horiz-adv-x="979" 
d="M16 -598q47 63 103 137.5t115.5 163.5t119.5 195t116.5 233t106 277.5t87.5 328.5q40 190 56 363t5.5 337.5t-49 325t-107.5 326.5h172q68 -154 118.5 -311.5t75.5 -321.5t21.5 -337t-43.5 -357q-29 -136 -67 -258t-87.5 -235t-110.5 -219.5t-134 -212t-159.5 -213
t-186.5 -222.5h-152z" />
    <glyph glyph-name="asterisk" unicode="*" horiz-adv-x="1462" 
d="M1032 1741l74 348h151l-73 -340l352 119l16 -135l-352 -111l164 -262l-143 -94l-168 274l-262 -258l-115 78l274 254l-299 127l74 127z" />
    <glyph glyph-name="plus" unicode="+" horiz-adv-x="1462" 
d="M905 1307h205l-106 -504h503l-41 -193h-503l-111 -516h-205l111 516h-504l41 193h504z" />
    <glyph glyph-name="comma" unicode="," horiz-adv-x="733" 
d="M238 0l57 274h262l-70 -323q-14 -65 -43.5 -121t-73.5 -102t-100.5 -80t-122.5 -54l29 127q60 22 95.5 53.5t55.5 68t30.5 77t19.5 80.5h-139z" />
    <glyph glyph-name="hyphen" unicode="-" horiz-adv-x="1016" 
d="M299 803h754l-41 -193h-754z" />
    <glyph glyph-name="period" unicode="." horiz-adv-x="733" 
d="M238 0l57 274h262l-57 -274h-262z" />
    <glyph glyph-name="slash" unicode="/" horiz-adv-x="815" 
d="M-49 -74l1163 2163h184l-1175 -2163h-172z" />
    <glyph glyph-name="two" unicode="2" horiz-adv-x="1389" 
d="M631 500q-81 -56 -141.5 -127t-88.5 -164h902l-41 -209h-1156q19 87 47 168t72.5 159t109.5 155t157 157l495 369q66 52 117 101.5t89.5 104t65.5 118t44 143.5q15 73 11.5 135.5t-31.5 108t-82 71t-140 25.5q-70 0 -125 -20.5t-97.5 -56t-73.5 -83t-53.5 -100.5
t-37 -108.5t-23.5 -107.5h-245l28 127q25 120 86 223.5t150 179.5t202 119.5t242 43.5q138 0 234 -41t150 -116t67 -179t-13 -230q-23 -109 -65 -199t-102 -168t-138.5 -147.5t-173.5 -136.5z" />
    <glyph glyph-name="three" unicode="3" horiz-adv-x="1389" 
d="M750 1163q51 2 104.5 3t105.5 8.5t101 26t90 55t73 95.5t50 148q15 69 13 127t-27.5 100t-76.5 65.5t-134 23.5q-95 0 -161.5 -32t-111 -85t-71 -122t-41.5 -142h-234q20 124 72.5 233t137 190t199.5 128t259 47q123 0 214.5 -35.5t147.5 -101.5t74 -159t-6 -208
q-17 -78 -45 -147.5t-71.5 -127t-104.5 -102.5t-144 -74q83 -21 135.5 -65t78.5 -104.5t28 -135.5t-16 -158q-29 -141 -88 -258.5t-150.5 -202t-215.5 -131.5t-284 -47q-161 0 -261 48.5t-149 135t-51.5 204t31.5 255.5h242q-23 -80 -26.5 -155.5t23 -134.5t88 -95
t169.5 -36q87 0 156.5 25.5t120.5 71t85 109t51 138.5q26 127 13 207.5t-66 126t-146 61t-226 14.5z" />
    <glyph glyph-name="four" unicode="4" horiz-adv-x="1343" 
d="M442 705h541l156 733q1 7 4 20t7.5 29.5t10.5 36t12 38.5q14 45 31 97q-25 -47 -51 -91q-23 -38 -49.5 -77.5t-50.5 -65.5zM1286 1999h217l-274 -1286h192l-45 -217h-192l-103 -496h-245l102 496h-774l45 217z" />
    <glyph glyph-name="five" unicode="5" horiz-adv-x="1389" 
d="M471 549q-18 -78 -17 -143.5t27.5 -113t81 -73.5t142.5 -26q90 0 165 40t132 106.5t96 152t57 176.5q12 56 17.5 113t1 109t-21 97.5t-49 79t-82 53t-120.5 19.5q-108 0 -192 -44t-152 -137h-217l344 1041h922l-45 -213h-717q-60 -174 -100 -282.5t-63 -169.5
q-27 -71 -42 -105q45 32 86.5 54.5t83.5 37t86.5 21t95.5 6.5q146 0 239.5 -54.5t142 -144.5t55.5 -205.5t-19 -238.5q-19 -88 -50.5 -176.5t-78 -169.5t-107.5 -151t-137.5 -122t-169.5 -81.5t-202 -29.5q-141 0 -240.5 40t-156 115t-68.5 181t22 238h250z" />
    <glyph glyph-name="six" unicode="6" horiz-adv-x="1389" 
d="M1176 659q17 80 17 155t-26.5 133.5t-84.5 94t-156 35.5q-67 0 -120.5 -17t-96 -46t-74.5 -68t-55.5 -83t-39 -91t-24.5 -92q-35 -137 -31 -229.5t38.5 -149t95.5 -80.5t139 -24q98 0 170 44.5t122 113t80.5 149.5t45.5 155zM713 -25q-142 0 -234.5 41t-145.5 110.5
t-72.5 162t-17.5 196.5t19.5 213t40.5 211q26 122 56.5 252t74 253.5t104 234.5t146.5 194t201.5 131.5t269.5 48.5q229 0 331.5 -121.5t78.5 -365.5h-254q7 77 -6 129.5t-44 84.5t-79 46t-109 14q-84 0 -149 -34.5t-115 -92.5t-86 -133.5t-63 -157t-45.5 -163t-32.5 -152.5
q44 58 96 99.5t107.5 67.5t113 38t113.5 12q94 0 166.5 -23.5t124.5 -66t85 -100.5t48 -127t13 -146.5t-19 -158.5q-34 -160 -104.5 -289t-165.5 -219.5t-209.5 -139.5t-237.5 -49z" />
    <glyph glyph-name="seven" unicode="7" horiz-adv-x="1389" 
d="M528 1999h1180l-41 -197q-191 -194 -357 -410t-303.5 -446t-244 -469t-176.5 -477h-275q81 240 193.5 477t252 464t305.5 440t355 405h-934z" />
    <glyph glyph-name="eight" unicode="8" horiz-adv-x="1389" 
d="M492 594q-17 -81 -16.5 -156.5t28 -133.5t87 -93t159.5 -35q70 0 133 28t114 81.5t88.5 131t57.5 177.5q17 75 14 142.5t-31 117.5t-84 79.5t-145 29.5t-157 -30t-117.5 -80.5t-81.5 -117.5t-49 -141zM754 1507q-15 -72 -12 -132.5t27 -105t70.5 -69t118.5 -24.5
t126.5 27t94 72t64.5 104t39 124q12 61 11.5 119t-21.5 102.5t-65 71.5t-117 27q-75 0 -132 -24t-97.5 -66t-66.5 -100t-40 -126zM242 582q24 117 76 203.5t118 146.5t139.5 95.5t141.5 49.5q-81 20 -131 61t-73.5 99.5t-23 131t18.5 155.5q18 90 65 181t126 163.5t191 118
t261 45.5q112 0 196 -33.5t134.5 -99t64.5 -161.5t-14 -222q-15 -72 -46 -141t-78 -127.5t-110 -103t-143 -67.5q88 -20 143.5 -65t84 -106.5t32 -136.5t-13.5 -155q-19 -87 -49.5 -169t-74.5 -154.5t-102 -132.5t-129.5 -103.5t-158 -67.5t-187.5 -24q-146 0 -248 42
t-159.5 121.5t-70 194.5t19.5 261z" />
    <glyph glyph-name="nine" unicode="9" horiz-adv-x="1389" 
d="M1311 1343q11 51 16.5 106.5t1.5 109t-20 101.5t-47 84t-79.5 57.5t-117.5 21.5q-63 0 -115 -19.5t-95 -53t-77 -78t-60 -94.5t-43.5 -103t-27.5 -103q-11 -50 -16 -101.5t-0.5 -99.5t20 -89.5t45 -72.5t75 -49t110.5 -18q95 0 168.5 34t126.5 90t86.5 128t48.5 149z
M1102 2032q107 0 185.5 -22.5t133.5 -63t88.5 -96t50.5 -122t20 -142t-4 -154.5t-21 -159.5t-31 -158.5q-17 -81 -37.5 -172.5t-48.5 -187t-64.5 -190t-84.5 -181t-110 -161.5t-140 -129.5t-174 -86t-214 -31.5q-117 0 -201 36t-134.5 101.5t-67 156.5t1.5 202h254
q-14 -68 -5.5 -120.5t37.5 -88.5t76.5 -55t112.5 -19q81 0 146 35.5t116 94t90.5 134t69.5 156t51.5 158.5t38.5 143q0 7 4 18t4 23q-45 -54 -98 -95t-110 -69t-114.5 -42.5t-111.5 -14.5q-143 0 -236.5 49.5t-143.5 133t-59 194t17 233.5q34 158 104.5 286t165.5 218.5
t209 139.5t234 49z" />
    <glyph glyph-name="colon" unicode=":" horiz-adv-x="733" 
d="M238 0l57 274h262l-57 -274h-262zM500 1245l61 279h262l-61 -279h-262z" />
    <glyph glyph-name="semicolon" unicode=";" horiz-adv-x="733" 
d="M500 1245l61 279h262l-61 -279h-262zM238 0l57 274h262l-70 -323q-14 -65 -43.5 -121t-73.5 -102t-100.5 -80t-122.5 -54l29 127q64 26 100 58t55.5 68t28 74.5t17.5 78.5h-139z" />
    <glyph glyph-name="less" unicode="&#x3c;" horiz-adv-x="1462" 
d="M1384 180l-45 -209l-1085 647l37 177l1360 647l-41 -201l-1114 -532z" />
    <glyph glyph-name="equal" unicode="=" horiz-adv-x="1462" 
d="M1524 877h-1213l41 192h1213zM1413 348h-1212l41 193h1212z" />
    <glyph glyph-name="greater" unicode="&#x3e;" horiz-adv-x="1462" 
d="M1266 709l-881 532l41 201l1090 -647l-37 -177l-1364 -647l45 209z" />
    <glyph glyph-name="question" unicode="?" horiz-adv-x="1462" 
d="M680 479q15 73 30 128.5t34 100.5t43.5 84t59 78.5t80.5 83t109 99.5q60 52 120 107t111.5 115.5t90 128t55.5 144.5q14 63 11.5 125t-27 111.5t-74.5 80.5t-131 31q-115 0 -195 -40.5t-133 -105.5t-83.5 -147t-47.5 -165h-254q13 83 42 163.5t73 152.5t103.5 133.5
t135 106.5t166 70t197.5 25q135 0 238 -36.5t167.5 -104.5t87.5 -165t-1 -218q-20 -92 -53.5 -165t-78.5 -133.5t-99.5 -113.5t-116 -105.5t-128 -109t-135.5 -123.5q-34 -32 -56.5 -68.5t-37.5 -78t-25.5 -88.5t-19.5 -101h-258zM582 0l57 274h262l-57 -274h-262z" />
    <glyph glyph-name="at" unicode="@" horiz-adv-x="2580" 
d="M1343 1499q-71 0 -133 -31t-114.5 -82t-94 -117.5t-70 -138t-44 -143t-15.5 -131.5q0 -52 12.5 -100t38.5 -85t65 -59t93 -22t101.5 24t87 61.5t70.5 83.5t53 89q24 48 49.5 103.5t46.5 114.5t34 119.5t13 117.5q0 41 -15 77t-41.5 62.5t-61.5 41.5t-75 15zM1651 594
q77 0 141.5 29.5t117 79t92 114t66.5 135t40.5 142t13.5 135.5q0 106 -31.5 198.5t-86.5 169t-131 136t-164.5 100.5t-187 62.5t-198.5 21.5q-122 0 -233.5 -31t-208.5 -87.5t-176.5 -136t-136.5 -176t-90 -207t-36 -230.5q-3 -122 27.5 -234t88 -209t139 -176.5
t180.5 -135.5t212 -87t234 -31q101 0 205.5 19.5t202 60.5t183 103.5t150.5 148.5h234q-75 -129 -183.5 -226.5t-236.5 -162.5t-270 -98t-285 -33q-148 0 -284.5 37.5t-255.5 106.5t-216.5 165.5t-166 214.5t-105 253.5t-33.5 283.5q3 147 42 283t107.5 253.5t164 214
t212.5 165.5t252 106.5t283 37.5q126 0 248 -30t232 -86t202.5 -135.5t160.5 -177.5t106 -213t38 -242q0 -97 -24 -190.5t-68.5 -177.5t-108 -156t-142 -127t-171 -90.5t-194.5 -45.5q-48 -6 -88.5 -1.5t-71.5 22t-50.5 48.5t-23.5 79q-34 -43 -72.5 -71.5t-80 -45.5
t-85 -24t-86.5 -7q-86 0 -153.5 31.5t-114.5 86.5t-71.5 129t-24.5 159q0 88 20.5 182t60 183.5t96 170t129 140.5t159.5 95.5t186 35.5q49 0 97 -10.5t89 -33t72.5 -57.5t48.5 -84l50 144h172l-279 -824q-3 -14 -9 -31.5t-12.5 -36.5t-11 -38.5t-4.5 -36.5t11 -26.5
t27 -14.5t35 -6.5t34 -1.5z" />
    <glyph glyph-name="bracketleft" unicode="[" horiz-adv-x="979" 
d="M164 -586l569 2675h512l-37 -168h-278l-496 -2331h279l-37 -176h-512z" />
    <glyph glyph-name="backslash" unicode="\" horiz-adv-x="733" 
d="M352 2089h168l303 -2089h-168z" />
    <glyph glyph-name="bracketright" unicode="]" horiz-adv-x="979" 
d="M41 -586l37 176h287l495 2331h-287l37 168h516l-569 -2675h-516z" />
    <glyph glyph-name="asciicircum" unicode="^" horiz-adv-x="1462" 
d="M1253 2097l217 -1175h-180l-168 925l-561 -925h-176l709 1175h159z" />
    <glyph glyph-name="underscore" unicode="_" horiz-adv-x="1462" 
d="M-70 -332l37 164h1458l-36 -164h-1459z" />
    <glyph glyph-name="grave" unicode="`" horiz-adv-x="979" 
d="M872 2130l181 -393h-197l-299 393h315z" />
    <glyph glyph-name="a" unicode="a" horiz-adv-x="1298" 
d="M1024 848q-90 -43 -199.5 -83.5t-218.5 -80.5q-41 -17 -74 -46.5t-57.5 -65.5t-41 -76t-23.5 -78q-12 -59 -11.5 -106t20.5 -80t62 -50.5t113 -17.5q22 0 53.5 5.5t66 19t70.5 36t67.5 57t56.5 82t38 111.5zM1233 16q-9 -3 -22.5 -6t-34.5 -6q-74 -5 -124.5 -1t-80 26.5
t-39.5 68t-2 123.5h-4q-32 -49 -81 -94.5t-106 -80t-119 -55t-120 -20.5q-120 0 -195 31.5t-112 90t-40.5 143t19.5 190.5q4 23 19 72t49.5 106t94 112.5t152.5 90.5q36 12 88 29.5t110 37.5l116 40t107 37t82.5 30t41.5 18q22 14 34.5 26.5t20 29t12.5 38.5t11 54
q14 66 9 112t-31 75t-73.5 42t-117.5 13q-80 0 -132.5 -17.5t-86.5 -52t-53 -85t-31 -116.5l-209 12q23 120 70.5 204t121 137.5t173 77.5t225.5 24q120 0 193.5 -29t113.5 -73t53.5 -96t13 -98.5t-8 -80.5t-9.5 -41l-180 -860q-3 -14 -6.5 -30.5t-3.5 -33t5.5 -30
t20.5 -21.5q22 -6 45.5 -6.5t57.5 2.5z" />
    <glyph glyph-name="b" unicode="b" horiz-adv-x="1462" 
d="M586 737q-12 -57 -24.5 -122t-17 -128.5t3 -122t35 -103t78.5 -71t134 -26.5q90 0 159 41t122.5 121.5t94 200t74.5 276.5q11 51 22 114.5t14.5 128.5t-3.5 127t-32 110t-71.5 77t-121.5 29q-85 0 -149 -32.5t-112 -85.5t-81.5 -121.5t-57 -141t-39.5 -143.5t-28 -128z
M422 0h-213l442 2089h234l-152 -717h8q89 108 185 154.5t200 46.5q103 0 176 -29.5t120.5 -81t72 -119.5t32 -145.5t0 -159.5t-23.5 -161q-24 -111 -54.5 -221t-71.5 -210.5t-95 -187.5t-124 -150.5t-158 -100t-197 -36.5q-54 0 -104.5 10.5t-94 36.5t-78 70.5t-55.5 112.5
h-8z" />
    <glyph glyph-name="c" unicode="c" horiz-adv-x="1298" 
d="M987 1389q-86 0 -151.5 -35t-114.5 -92t-84 -130t-59.5 -148.5t-41 -147.5t-28.5 -127q-10 -51 -19.5 -111.5t-11.5 -121t6.5 -117t35.5 -100t74.5 -69.5t123.5 -26q94 0 156.5 34.5t103.5 90t67 126t46 142.5h221q-28 -112 -78 -217.5t-125.5 -187.5t-178.5 -131.5
t-237 -49.5q-125 0 -210 30t-138 83.5t-78 127t-29 160.5t8 184t34 198q19 95 47.5 193t70 189t98 170.5t133 139t174.5 93.5t222 34q123 0 206.5 -42t130 -114t57 -167t-12.5 -201h-217q11 61 11.5 122t-19.5 109.5t-66 78.5t-127 30z" />
    <glyph glyph-name="d" unicode="d" horiz-adv-x="1458" 
d="M1192 799q11 53 22 117.5t14 130t-4.5 127.5t-34 109.5t-74 76.5t-124.5 29q-74 0 -140 -27.5t-124 -96t-107 -186t-88 -297.5q-17 -84 -31 -162.5t-17.5 -147t5.5 -125.5t37.5 -97.5t79.5 -63t131 -22.5q60 0 112 20.5t95 55t77 80t60 95t43.5 100t26.5 95.5zM1466 2089
h226l-443 -2089h-221l45 217h-4q-54 -68 -104.5 -114.5t-104.5 -76t-115 -42.5t-135 -13q-96 0 -161.5 29t-107 77.5t-62.5 112t-28 133t-2.5 139.5t13 131.5t18.5 110t15 74.5q31 169 90 314.5t144 252t194 167.5t240 61q61 0 111 -12t91 -36.5t75 -62.5t63 -90h12z" />
    <glyph glyph-name="e" unicode="e" horiz-adv-x="1298" 
d="M1122 926q7 45 15.5 96.5t11 102.5t-4 97.5t-29 82.5t-64.5 57.5t-109 21.5q-68 0 -119.5 -22.5t-91 -60t-68 -85t-48.5 -98.5t-34 -101t-24 -91h565zM1262 512q-20 -114 -71 -212.5t-129.5 -171.5t-183 -115t-231.5 -42q-78 0 -144 16.5t-117.5 54t-86.5 98t-50 149
t-8.5 206.5t38.5 271q17 81 46 172t71 180t98 171t128.5 144t162 99t198.5 37q128 0 207 -37t122 -100t56 -146t8 -175t-21.5 -187.5t-31.5 -182.5h-807q-9 -48 -22 -109.5t-20.5 -125.5t-4.5 -125.5t25.5 -109.5t69.5 -77.5t128 -29.5q83 0 145.5 30.5t105.5 80t67 112
t30 125.5h222z" />
    <glyph glyph-name="f" unicode="f" horiz-adv-x="815" 
d="M561 1360h-237l41 188h229l29 131q6 34 15 74t23 80.5t34.5 78t49.5 66.5q74 77 184.5 101.5t270.5 9.5l-41 -184q-68 4 -116.5 2t-82.5 -21t-56 -59t-36 -111l-37 -168h254l-41 -188h-253l-287 -1360h-230z" />
    <glyph glyph-name="g" unicode="g" horiz-adv-x="1470" 
d="M987 1389q-78 0 -139 -31t-108 -82t-82 -116t-60 -133.5t-42 -134.5t-28 -118q-31 -141 -39.5 -254t10.5 -192t68 -121.5t133 -42.5q88 0 156 30.5t119 81.5t87.5 117.5t62.5 138.5t44 144t31 135q15 76 23.5 148t6 136.5t-16.5 118.5t-42.5 92.5t-74 60.5t-109.5 22z
M1356 1548h229l-291 -1360q-17 -78 -39 -151t-50.5 -139t-65 -123t-82.5 -103q-45 -44 -102.5 -80.5t-122.5 -62t-134.5 -39.5t-136.5 -14q-97 0 -177 22t-135 68t-81.5 117t-15.5 170h225q-3 -51 11.5 -88t44 -61.5t71.5 -36t94 -11.5q93 0 161 28.5t116 74.5t79.5 104.5
t52.5 118.5t34 116.5t24 98.5h-12q-98 -120 -196.5 -173t-209.5 -53q-78 0 -144 17t-117 55.5t-85 100.5t-48 152.5t-6.5 211.5t40.5 278q17 81 45.5 171t69.5 177t96 167t127 140t160.5 96t197.5 36q54 0 105 -12.5t94.5 -39t77 -66.5t51.5 -95h4z" />
    <glyph glyph-name="h" unicode="h" horiz-adv-x="1470" 
d="M442 0h-233l442 2089h234l-156 -729q54 52 107.5 92t110 67t117 40.5t128.5 13.5q91 0 161 -23.5t113.5 -72t57 -122.5t-7.5 -175l-250 -1180h-230l238 1122q12 60 9.5 109t-24.5 84.5t-65.5 54.5t-112.5 19q-78 0 -147 -26.5t-124 -75t-95 -116.5t-60 -151z" />
    <glyph glyph-name="i" unicode="i" horiz-adv-x="672" 
d="M221 0l328 1548h233l-327 -1548h-234zM602 1810l62 279h233l-61 -279h-234z" />
    <glyph glyph-name="j" unicode="j" horiz-adv-x="680" 
d="M-16 -324q10 -2 31.5 -2t45.5 4t47.5 13t38.5 26q17 22 27.5 47t16.5 51t9.5 52.5t8.5 50.5l348 1630h234l-345 -1609q-29 -137 -67 -227.5t-96 -144.5t-141 -76.5t-203 -22.5zM610 1810l62 279h233l-61 -279h-234z" />
    <glyph glyph-name="k" unicode="k" horiz-adv-x="1327" 
d="M209 0l442 2089h226l-271 -1262l737 721h279l-631 -602l316 -946h-267l-245 774l-246 -221l-115 -553h-225z" />
    <glyph glyph-name="l" unicode="l" horiz-adv-x="668" 
d="M217 0l442 2089h234l-442 -2089h-234z" />
    <glyph glyph-name="m" unicode="m" horiz-adv-x="2286" 
d="M442 0h-233l328 1548h225l-45 -217q40 49 91 92.5t109 75.5t120.5 51t125.5 19q67 0 123.5 -17t101 -48.5t75.5 -76.5t48 -100q54 58 109.5 103.5t115.5 76t127 46.5t144 16q84 0 157.5 -25.5t129.5 -81.5q31 -35 40.5 -82t7.5 -97t-12.5 -98.5t-19.5 -86.5l-229 -1098
h-234l238 1118q12 63 10.5 112.5t-23.5 83.5t-67.5 52t-120.5 18q-75 -5 -142 -32.5t-121 -75t-91.5 -113.5t-54.5 -147l-213 -1016h-230l238 1118q12 60 8 109t-27.5 84t-68 54t-113.5 19q-78 0 -145 -26.5t-120 -74.5t-91 -116t-58 -151z" />
    <glyph glyph-name="n" unicode="n" horiz-adv-x="1475" 
d="M725 1360q110 104 223 158.5t248 54.5q91 0 161 -23.5t113.5 -72t57 -122.5t-7.5 -175l-250 -1180h-230l238 1122q12 60 9.5 109t-24.5 84.5t-65.5 54.5t-112.5 19q-164 0 -276.5 -95t-153.5 -274l-213 -1020h-233l328 1548h229z" />
    <glyph glyph-name="o" unicode="o" horiz-adv-x="1462" 
d="M1065 1573q154 0 255.5 -51t154 -147t58 -234.5t-33.5 -313.5q-35 -168 -80.5 -296.5t-101 -223.5t-121 -159.5t-139.5 -103.5t-157.5 -56t-174.5 -17q-89 0 -164 17t-132.5 56t-96 103.5t-55 159.5t-9 223.5t42.5 296.5q39 175 105 313.5t160 234.5t216.5 147t272.5 51z
M766 164q104 0 182.5 41.5t136.5 118t98.5 186t69.5 244.5q37 177 41.5 298t-23.5 196t-88.5 108t-154.5 33q-92 0 -167 -33t-136 -108t-108.5 -196t-84.5 -298q-29 -135 -34.5 -244.5t20 -186t85.5 -118t163 -41.5z" />
    <glyph glyph-name="p" unicode="p" horiz-adv-x="1475" 
d="M1253 803q11 51 21 114.5t12.5 128.5t-6 127t-34.5 110t-72.5 77t-120.5 29q-75 0 -134 -30t-105 -80t-80 -114t-58.5 -132t-41.5 -134.5t-28 -120.5t-24 -120.5t-19 -135t-1 -133t30 -114.5t73.5 -80.5t129.5 -30.5q90 0 160.5 41t125 121.5t96.5 200t76 276.5z
M332 -520h-234l439 2068h221l-41 -188h12q38 55 85.5 94t98.5 64.5t103.5 38.5t101.5 16q103 0 177.5 -29.5t124 -80t76.5 -118.5t36 -145.5t2.5 -160t-23.5 -162.5q-24 -111 -56 -221t-75.5 -210.5t-99.5 -187.5t-128.5 -150.5t-162 -100t-198.5 -36.5q-63 0 -111 14
t-85 40.5t-65 64.5t-51 86z" />
    <glyph glyph-name="q" unicode="q" horiz-adv-x="1466" 
d="M541 709q-20 -114 -26.5 -213t12.5 -173t68.5 -116.5t141.5 -42.5q80 0 141.5 30.5t108.5 81.5t80.5 116t57.5 133.5t40 135.5t27 121q11 51 23.5 115.5t18 131.5t0 131.5t-29.5 114.5t-71 81.5t-125 32.5q-76 0 -136 -29.5t-107.5 -80t-83.5 -118t-62.5 -143t-45.5 -155
t-32 -154.5zM1364 1548h221l-438 -2060h-229l147 696h-4q-51 -54 -99 -94t-97.5 -66.5t-101 -39.5t-108.5 -13q-128 0 -209 44.5t-121.5 139t-43.5 242t26 353.5q14 88 42 183t69.5 186.5t97 174t125.5 144.5t154.5 98.5t183.5 36.5q54 0 104.5 -11t94.5 -35.5t80 -62.5
t61 -92h8z" />
    <glyph glyph-name="r" unicode="r" horiz-adv-x="971" 
d="M717 1294h8q52 77 110.5 130.5t125.5 85.5t144.5 43t168.5 3l-45 -217q-108 20 -203.5 0t-172 -74t-130 -137.5t-76.5 -189.5l-196 -938h-230l328 1548h221z" />
    <glyph glyph-name="s" unicode="s" horiz-adv-x="1298" 
d="M1122 1122q37 136 -9 201.5t-187 65.5q-59 0 -110 -14t-92 -42t-69.5 -70.5t-40.5 -99.5q-10 -47 -4 -81.5t24.5 -60.5t47 -44.5t62.5 -33t72.5 -27.5t76.5 -27q89 -35 166.5 -69.5t130.5 -82t75 -115.5t1 -171q-23 -111 -79 -199.5t-139.5 -151t-193 -96t-240.5 -33.5
q-71 0 -136.5 9t-121 28t-97 49.5t-62.5 73.5q-22 45 -30 88t-7.5 84t8 81t16.5 79h217q-18 -69 -11.5 -124.5t38.5 -94t89 -59.5t138 -21q71 0 131.5 16t108 48.5t79.5 80.5t46 113q17 73 -8.5 120.5t-75.5 80t-115.5 56.5t-128.5 50q-87 34 -155.5 68.5t-111.5 81.5
t-57.5 113t5.5 163q21 98 73 175.5t127 131.5t169 82.5t200 28.5q121 0 210 -26t142 -81t68.5 -140.5t-10.5 -203.5h-230z" />
    <glyph glyph-name="t" unicode="t" horiz-adv-x="803" 
d="M819 1548h271l-41 -188h-271l-225 -1053q-3 -20 -8.5 -41t-1 -38.5t24 -28.5t67.5 -11h156l-37 -188h-254q-53 -2 -95.5 5.5t-69.5 34t-34.5 77.5t10.5 137l234 1106h-221l41 188h221l90 422h233z" />
    <glyph glyph-name="u" unicode="u" horiz-adv-x="1446" 
d="M1057 217h-13q-43 -60 -95.5 -106t-110.5 -77t-119 -47t-121 -16q-91 0 -159 24t-109 73.5t-53 124t10 176.5l250 1179h229l-254 -1188q-9 -48 -6.5 -84.5t21.5 -61t57 -37.5t100 -13q86 0 159.5 30.5t131 84.5t97.5 128.5t58 161.5l209 979h226l-328 -1548h-225z" />
    <glyph glyph-name="v" unicode="v" horiz-adv-x="1307" 
d="M365 1548h241l82 -1061q5 -53 5 -106t-1 -96q-2 -50 -4 -97h4q18 47 38 97q17 43 40 95t49 103l533 1065h241l-819 -1548h-250z" />
    <glyph glyph-name="w" unicode="w" horiz-adv-x="1954" 
d="M1434 467q0 -18 -1 -39t-3 -44t-4.5 -46.5t-4.5 -45.5q-5 -51 -12 -104h4q16 53 32 104q7 22 14.5 45.5t15.5 46.5t16 44t16 39l484 1081h241l-737 -1548h-242l-12 1135q0 37 3.5 76.5t8.5 72.5q5 39 13 76h-4q-11 -37 -22 -76q-10 -33 -23.5 -72.5t-28.5 -76.5
l-475 -1135h-242l-90 1548h242l28 -1081q0 -18 -1 -39t-2.5 -44t-4 -46.5t-4.5 -45.5q-5 -51 -12 -104h12q16 53 32 104q7 22 14.5 45.5t15.5 46.5t16 44t16 39l451 1081h241z" />
    <glyph glyph-name="x" unicode="x" horiz-adv-x="1294" 
d="M360 1548h242l234 -610l499 610h242l-655 -766l340 -782h-246l-250 606l-500 -606h-246l664 782z" />
    <glyph glyph-name="y" unicode="y" horiz-adv-x="1298" 
d="M360 1548h242l94 -1061q3 -37 1.5 -85.5t-4.5 -92.5q-4 -51 -9 -104h4q18 53 37 104q17 44 36 92.5t38 85.5l553 1061h241l-798 -1478q-13 -24 -30.5 -57t-37.5 -70t-42.5 -76t-43.5 -75t-41 -66.5t-35 -49.5q-89 -110 -190.5 -159t-227.5 -49q-40 0 -81 7.5t-78 16.5
l37 197q37 -16 82 -24.5t86 -8.5q54 0 94.5 12t71.5 33t54.5 50t44.5 63t41.5 72t45.5 77z" />
    <glyph glyph-name="z" unicode="z" horiz-adv-x="1143" 
d="M61 0l33 172l1020 1196h-729l41 180h979l-41 -180l-1020 -1184h774l-37 -184h-1020z" />
    <glyph glyph-name="braceleft" unicode="{" horiz-adv-x="803" 
d="M528 45q-12 -59 -10.5 -105t23 -82.5t66 -66t118.5 -53.5v-4q-150 -3 -242 18t-137.5 70.5t-50 129.5t19.5 195l99 455q7 37 13 70t4 62.5t-16 56t-46 49.5q-28 28 -70 44.5t-82 28.5v5q35 4 64 12t54.5 18.5t48.5 24.5t46 31q31 24 49.5 47.5t30 48t18.5 51t13 57.5
l110 521q9 38 21.5 78.5t33 78.5t51.5 71.5t79 57.5q49 28 95 43t93 22t96 8t105 1l-4 -8q-83 -18 -139.5 -46t-93.5 -65.5t-58 -85.5t-33 -106l-111 -521q-15 -68 -38.5 -122.5t-64 -96.5t-103.5 -72t-158 -48v-5q91 -20 140.5 -55t70 -83t17 -109.5t-18.5 -133.5z" />
    <glyph glyph-name="bar" unicode="|" horiz-adv-x="733" 
d="M717 2089h184l-442 -2089h-185z" />
    <glyph glyph-name="braceright" unicode="}" horiz-adv-x="803" 
d="M664 1778q12 57 9.5 104t-24.5 84.5t-67.5 66t-118.5 48.5l4 8q147 3 238 -18t137 -70.5t52 -128.5t-17 -193l-99 -458q-8 -36 -14.5 -68t-5 -62t15 -58t45.5 -54q31 -25 72 -41t84 -29l-4 -4q-68 -6 -119 -27t-94 -55q-29 -26 -47 -49.5t-29.5 -48t-18 -50.5t-12.5 -57
l-110 -516q-9 -41 -22 -82t-34 -79.5t-53 -73.5t-80 -64q-48 -26 -93.5 -40t-92 -20.5t-95 -7.5t-100.5 -1v4q83 23 139.5 51.5t93.5 65t58 83.5t33 107l111 528q13 64 35.5 118t63 96t103.5 71.5t158 46.5l4 4q-91 22 -141 57t-71 83.5t-17.5 109.5t20.5 135z" />
    <glyph glyph-name="asciitilde" unicode="~" horiz-adv-x="1462" 
d="M668 926q39 0 81 -14.5t84.5 -35.5t85 -46.5t84 -46.5t81 -35.5t75.5 -14.5q40 0 80 21.5t77.5 55.5t70.5 75.5t59 81.5l65 -140q-37 -57 -82.5 -112t-97 -98.5t-108.5 -70t-117 -26.5q-40 0 -81.5 14.5t-83.5 35.5t-83.5 46.5t-82.5 46.5t-80.5 35.5t-76.5 14.5
q-47 0 -88 -23t-77 -59t-67 -80.5t-58 -87.5l-78 131q41 58 87.5 117.5t98.5 107t109.5 77.5t122.5 30z" />
    <glyph glyph-name="cent" unicode="&#xa2;" horiz-adv-x="1462" 
d="M688 250q-95 10 -159.5 46t-104.5 91t-57.5 127t-19 154.5t10 173t31.5 182.5q19 87 43.5 177t60 175t84 162t113 137.5t148 101.5t190.5 54l53 258h164l-53 -250q106 -8 178 -53t111.5 -116t47.5 -162t-13 -189h-218q9 54 11.5 110.5t-11 104t-48.5 80t-99 37.5
l-258 -1213q80 9 131.5 47t85 92.5t53.5 119.5t37 130h221q-26 -106 -71 -207.5t-113.5 -183t-163.5 -134.5t-221 -60l-49 -242h-164zM618 979q-9 -45 -18 -98t-13.5 -108t-1.5 -107.5t19 -96t47 -75t82 -43.5l254 1187q-63 -17 -111.5 -59.5t-86 -99.5t-65.5 -124.5
t-48 -135t-34 -130t-24 -110.5z" />
    <glyph glyph-name="sterling" unicode="&#xa3;" horiz-adv-x="1462" 
d="M283 942l28 119h221q-21 58 -37.5 115t-24.5 114.5t-6.5 117t15.5 124.5q29 134 96 237.5t164 174.5t220.5 108t265.5 37q124 0 219.5 -33t158 -97t89 -157t12.5 -213q-6 -34 -11 -67.5t-18 -67.5h-241q1 8 4.5 25.5t7.5 39.5t7 45t5 42q3 70 -16 122t-58 85.5t-96 50
t-129 16.5q-90 0 -163 -28t-127.5 -78t-90.5 -119t-53 -152q-12 -57 -11 -114t11 -113t26.5 -110t34.5 -105h476l-29 -119h-422q13 -51 15 -100t-7 -105q-18 -87 -62 -166.5t-105 -150t-134 -131t-149 -109.5v-8q54 28 111.5 48t116 30t116 9.5t110.5 -13.5q32 -8 59 -15
t52 -13.5t48.5 -12.5t49.5 -12q53 -12 100 -12t91 10.5t86.5 31t87.5 47.5l41 -188q-59 -35 -104.5 -57t-89 -34t-89.5 -16t-106 -4q-34 0 -76.5 10.5t-86.5 24.5t-87 27.5t-78 19.5q-72 18 -136 20t-126.5 -10.5t-126 -38.5t-135.5 -65l-86 168q86 55 161.5 114t135.5 126
t102.5 145t62.5 172q16 68 12 132t-20 126h-282z" />
    <glyph glyph-name="yen" unicode="&#xa5;" horiz-adv-x="1659" 
d="M872 815l-380 1274h294l267 -1045l729 1045h278l-950 -1274h406l-29 -139h-406l-45 -197h406l-29 -143h-405l-70 -336h-238l70 336h-405l28 143h406l45 197h-406l29 139h405z" />
    <glyph glyph-name="guillemotleft" unicode="&#xab;" horiz-adv-x="1462" 
d="M983 1376l-49 -229l-352 -283l233 -282l-49 -234l-352 434l37 172zM1507 1376l-49 -229l-356 -283l237 -282l-49 -234l-352 434l37 172z" />
    <glyph glyph-name="guillemotright" unicode="&#xbb;" horiz-adv-x="1462" 
d="M848 348l49 234l352 282l-233 283l49 229l352 -430l-37 -172zM324 348l49 234l348 282l-229 283l49 229l352 -430l-37 -172z" />
    <glyph glyph-name="divide" unicode="&#xf7;" horiz-adv-x="1462" 
d="M295 803h1212l-41 -193h-1212zM848 1257q6 31 23.5 58.5t42 48.5t54 33t60.5 12t55.5 -12t40.5 -33t22.5 -48.5t0.5 -58.5q-6 -30 -24.5 -57t-43.5 -47t-55.5 -31.5t-60.5 -11.5q-31 0 -55 11.5t-39.5 31.5t-21 47t0.5 57zM614 156q6 31 23 58.5t41 48t53 32.5t60 12
q30 0 55.5 -12t42.5 -32.5t23.5 -48t0.5 -58.5q-8 -31 -26 -58t-43 -47t-54.5 -31.5t-60.5 -11.5t-55.5 11.5t-40.5 31.5t-21.5 47t2.5 58z" />
    <glyph glyph-name="quotedblleft" unicode="&#x201c;" horiz-adv-x="1143" 
d="M889 2011q-51 -11 -86.5 -41.5t-59.5 -71t-39 -86.5t-24 -88h135l-57 -274h-262l57 270q14 68 39.5 133t68.5 120.5t104.5 97.5t147.5 63zM1384 2011q-51 -11 -86.5 -41.5t-59.5 -71t-38.5 -86.5t-23.5 -88h135l-58 -274h-262l58 270q13 68 39 133t68.5 120.5t104.5 97.5
t148 63z" />
    <glyph glyph-name="quotedblright" unicode="&#x201d;" horiz-adv-x="1143" 
d="M508 1528q49 10 84.5 41t60 71.5t40 86.5t24.5 88h-135l57 274h262l-57 -270q-14 -68 -40.5 -133t-70 -120.5t-106 -97.5t-148.5 -63zM1004 1528q49 10 84.5 41t60 71.5t39.5 86.5t24 88h-135l58 274h262l-58 -270q-14 -68 -40 -133t-69.5 -120.5t-106 -97.5t-148.5 -63z
" />
    <glyph glyph-name="quoteleft" unicode="&#x2018;" horiz-adv-x="651" 
d="M889 2011q-51 -11 -86.5 -41.5t-59.5 -71t-39 -86.5t-24 -88h135l-57 -274h-262l57 270q14 68 39.5 133t68.5 120.5t104.5 97.5t147.5 63z" />
    <glyph glyph-name="quoteright" unicode="&#x2019;" horiz-adv-x="651" 
d="M512 1528q49 10 84.5 41t60 71.5t40 86.5t24.5 88h-135l57 274h262l-57 -270q-14 -68 -40.5 -133t-70 -120.5t-106 -97.5t-148.5 -63z" />
    <glyph glyph-name="endash" unicode="&#x2013;" horiz-adv-x="1462" 
d="M205 967h1462l-45 -205h-1462z" />
    <glyph glyph-name="emdash" unicode="&#x2014;" horiz-adv-x="2933" 
d="M205 967h2933l-46 -205h-2932z" />
    <glyph glyph-name="trademark" unicode="&#x2122;" horiz-adv-x="2314" 
d="M2400 913h-164l213 1000h-4l-565 -1000h-98l-131 1000h-4l-213 -1000h-164l250 1176h262l114 -877l496 877h258zM1311 1921h-324l-213 -1008h-176l213 1008h-324l37 168h824z" />
    <glyph glyph-name="onequarter" unicode="&#xbc;" horiz-adv-x="2089" 
d="M1454 430h352l111 533zM1978 1208h172l-163 -778h106l-33 -147h-106l-58 -283h-180l58 283h-500l33 155zM2077 1999h192l-1687 -1999h-201zM803 1700q-65 -34 -141 -46t-162 -12l28 136q72 1 130.5 12.5t104 36.5t80 67t58.5 105h152l-254 -1208h-189z" />
    <glyph glyph-name="onehalf" unicode="&#xbd;" horiz-adv-x="2089" 
d="M1974 1999h193l-1696 -1999h-192zM1597 311q-15 -11 -32.5 -27t-33.5 -36.5t-28 -44t-16 -47.5h528l-33 -156h-745q15 64 31.5 119.5t45.5 108t77.5 105.5t128.5 113l258 189q74 53 117 107.5t59 125.5q7 40 6 74t-15 58.5t-43.5 38.5t-78.5 14q-59 0 -97 -24.5t-63 -63
t-38.5 -86t-22.5 -93.5h-189q20 112 63.5 192t103.5 131t133 75t151 24q89 0 151 -25.5t98 -70.5t46 -107.5t-5 -136.5q-15 -66 -41 -117t-64 -94t-87.5 -81.5t-110.5 -79.5zM803 1700q-65 -34 -141 -46t-162 -12l28 136q72 1 130.5 12.5t104 36.5t80 67t58.5 105h152
l-254 -1208h-189z" />
    <glyph glyph-name="threequarters" unicode="&#xbe;" horiz-adv-x="2089" 
d="M1450 430h352l111 533zM1974 1208h172l-164 -778h111l-33 -147h-110l-58 -283h-180l57 283h-495l33 155zM2114 1999h196l-1692 -1999h-200zM680 1499q58 -2 105 0t83 18.5t60.5 53t38.5 104.5q9 43 9.5 75.5t-12 54t-39.5 32t-73 10.5q-54 0 -90.5 -17t-60.5 -46.5
t-38.5 -68t-23.5 -81.5h-180q15 75 49 141.5t87.5 116t126.5 78.5t167 29q77 0 135.5 -21.5t95.5 -61t49.5 -95.5t-2.5 -125q-9 -46 -25 -86.5t-42 -74.5t-62.5 -60.5t-87.5 -44.5q46 -15 77.5 -42.5t49 -63.5t20.5 -80t-7 -93q-17 -84 -54 -153.5t-95 -119t-136 -77
t-178 -27.5q-105 0 -171.5 28.5t-99.5 79.5t-36 122t20 155h180q-18 -48 -20.5 -91t13.5 -75.5t52 -51.5t94 -19q96 0 154 51.5t80 144.5q14 66 8.5 108.5t-34.5 67.5t-83 33.5t-137 7.5z" />
    <glyph glyph-name="bullet" unicode="&#x2022;" horiz-adv-x="1081" 
d="M279 815q17 83 67 157.5t121 130.5t157 89t175 33t161.5 -33t120.5 -89t67.5 -130.5t2.5 -157.5q-18 -86 -69.5 -162t-124 -133t-159 -90t-175.5 -33t-161 33t-119 90t-65 133t1 162z" />
    <glyph glyph-name="zero" unicode="0" horiz-adv-x="1393" 
d="M733 184q85 0 150.5 36.5t116 98.5t88 145t66.5 176.5t51.5 192t43.5 191.5q17 86 34.5 178t26.5 180t5.5 167t-28 138.5t-74 95t-132.5 36.5q-88 1 -156 -38t-119.5 -104t-89 -149t-64.5 -173t-46 -175t-33 -156q-20 -93 -40 -191.5t-30.5 -192t-7.5 -176.5t27.5 -145
t75 -98.5t135.5 -36.5zM1126 2028q111 0 189 -29t129 -80t78 -120t36.5 -148.5t5 -166t-16.5 -172.5t-28.5 -168t-31.5 -153q-18 -85 -39.5 -174t-48.5 -177t-61 -171.5t-78.5 -158t-100 -136.5t-125.5 -107.5t-156 -70.5t-190 -25q-139 0 -227.5 44t-137.5 119.5t-65 176
t-10.5 214t26 233t45.5 233.5q15 71 33 153t42.5 168t57.5 172.5t77 166t101 148.5t130 120t164 80t202 29z" />
    <glyph glyph-name="one" unicode="1" horiz-adv-x="1389" 
d="M971 1528q-71 -40 -192 -63t-279 -23l41 188q112 1 203.5 21t163.5 63.5t124 113.5t86 171h193l-422 -1999h-242z" />
    <glyph glyph-name="copyright" unicode="&#xa9;" horiz-adv-x="2114" 
d="M328 991q27 129 86.5 248.5t143 224t187.5 190t221 147t244 95t256 33.5t241.5 -33.5t203.5 -95t158.5 -147t106.5 -190t47 -224t-19 -248.5q-28 -129 -87 -248.5t-143 -224t-188 -190t-221 -147t-244 -95t-256 -33.5t-241.5 33.5t-203.5 95t-158.5 147t-106.5 190
t-47 224t20 248.5zM504 991q-22 -105 -16 -202.5t37.5 -182.5t85.5 -154.5t128 -119t165.5 -76.5t197.5 -27q105 0 208.5 27t199 76.5t180 119t152 154.5t115.5 182t71 203q23 105 16 202.5t-38.5 182.5t-87 154.5t-130 119t-166.5 76.5t-197 27t-208 -27t-198 -76.5
t-179 -119t-151 -154.5t-115 -182.5t-70 -202.5zM1630 827q-28 -92 -78.5 -166t-114.5 -126.5t-137 -80.5t-145 -28q-109 0 -188 43.5t-125 120t-57.5 180.5t14.5 225q26 118 80 220t130 177t171 117.5t204 42.5q75 0 137 -27t104.5 -78t63.5 -124.5t15 -167.5h-156
q1 57 -12 102.5t-38.5 77.5t-62.5 49t-83 17q-75 0 -140 -32t-116 -87.5t-87 -129.5t-55 -157q-17 -81 -12.5 -156.5t32 -133.5t80 -92.5t130.5 -34.5q45 0 89.5 17.5t83.5 50t70 78.5t48 103h155z" />
    <glyph glyph-name="registered" unicode="&#xae;" horiz-adv-x="2114" 
d="M328 991q27 129 86.5 248.5t143 224t187.5 190t221 147t244 95t256 33.5t241.5 -33.5t203.5 -95t158.5 -147t106.5 -190t47 -224t-19 -248.5q-28 -129 -87 -248.5t-143 -224t-188 -190t-221 -147t-244 -95t-256 -33.5t-241.5 33.5t-203.5 95t-158.5 147t-106.5 190
t-47 224t20 248.5zM504 991q-22 -105 -16 -202.5t37.5 -182.5t85.5 -154.5t128 -119t165.5 -76.5t197.5 -27q105 0 208.5 27t199 76.5t180 119t152 154.5t115.5 182t71 203q23 105 16 202.5t-38.5 182.5t-87 154.5t-130 119t-166.5 76.5t-197 27t-208 -27t-198 -76.5
t-179 -119t-151 -154.5t-115 -182.5t-70 -202.5zM1581 451h-180l-164 479h-176l-103 -479h-155l229 1081h430q65 0 122 -18.5t96.5 -56t58 -93.5t6.5 -131q-12 -76 -46 -131t-81 -92t-102.5 -56.5t-110.5 -23.5zM1274 1065q46 0 96.5 2t95.5 18t79 51t48 101
q11 54 -1.5 85.5t-40 48t-66 21.5t-80.5 5h-246l-69 -332h184z" />
    <glyph glyph-name="saraithai.alt1" 
d="M-668 2228h963l-41 -196h-1061z" />
    <glyph glyph-name="saraiithai.alt1" 
d="M-668 2228h754l57 266h209l-98 -462h-1061z" />
    <glyph glyph-name="sarauethai.alt1" 
d="M25 2265q-5 -18 -1.5 -34.5t13 -29t24.5 -19.5t33 -7t36 7t33 19.5t26 29t16 34.5q9 37 -12 63.5t-58 26.5q-18 0 -36 -7t-33 -19.5t-26 -29t-15 -34.5zM-668 2224h541q3 9 2 21t2 24q11 49 39.5 93t68 77t87 52.5t96.5 19.5t88.5 -19.5t65.5 -52.5t35.5 -77t-1.5 -93
t-39 -93t-67.5 -77t-87 -52t-96.5 -19h-17h-856z" />
    <glyph glyph-name="saraueethai.alt1" 
d="M-668 2228h385l58 266h209l-58 -266h160l57 266h209l-98 -462h-1061z" />
    <glyph glyph-name="saraithai.alt2" 
d="M-1163 2228h1069l-41 -196h-1168z" />
    <glyph glyph-name="saraiithai.alt2" 
d="M-1159 2224h856l57 266h209l-98 -462h-1163z" />
    <glyph glyph-name="sarauethai.alt2" 
d="M-352 2269q-6 -37 15 -63.5t58 -26.5q19 0 37 7t32.5 19.5t24.5 29t13 34.5q9 37 -12 63.5t-58 26.5q-18 0 -36 -7t-33 -19.5t-26 -29t-15 -34.5zM-1163 2228h655q3 10 3.5 21.5t0.5 23.5q11 49 40 93t69.5 77t88.5 52.5t97 19.5t88 -19.5t64.5 -52.5t35.5 -77t1 -93
t-37.5 -93t-68.5 -77t-88 -52t-97 -19h-17h-975z" />
    <glyph glyph-name="saraueethai.alt2" 
d="M-1180 2228h594l58 266h168l-58 -266h164l57 266h168l-98 -462h-1196z" />
    <glyph glyph-name="maiekthai.alt2" 
d="M-115 3068h197l-86 -422h-201z" />
    <glyph glyph-name="maithothai.alt2" 
d="M-508 2646l53 258h-143l37 164h352l-53 -254q80 0 138 17.5t97.5 50.5t64 80t36.5 106h250q-19 -81 -68 -157.5t-128 -135t-187 -94t-244 -35.5h-205z" />
    <glyph glyph-name="maitrithai.alt2" 
d="M-57 2646q4 20 8.5 52t2.5 62t-13.5 52t-38.5 22q-26 0 -48.5 -19t-39.5 -47.5t-29 -61t-18 -60.5h-136q6 28 9 60.5t-1 61t-17.5 47.5t-39.5 19q-29 0 -50 -22t-35.5 -52t-23.5 -62t-14 -52h-172q22 101 55 169.5t73 110t86 59t93 17.5q40 0 67.5 -14t45 -37.5t25.5 -54
t10 -62.5q11 34 31.5 64.5t49 53.5t65 36.5t79.5 13.5q40 0 72.5 -10t53.5 -34.5t27.5 -64.5t-5.5 -100q26 9 52.5 32t50 55t42 72t27.5 83h184q-14 -63 -47.5 -127t-81.5 -118t-108 -93t-128 -51h-163z" />
    <glyph glyph-name="maichattawathai.alt2" 
d="M29 2879l-45 -233h-185l49 233h-249l32 164h250l49 217h181l-50 -217h254l-32 -164h-254z" />
    <glyph glyph-name="saraithai.alt3" 
d="M-1118 2228h1413l-41 -196h-1511z" />
    <glyph glyph-name="saraiithai.alt3" 
d="M-1118 2228h1204l57 266h209l-98 -462h-1511z" />
    <glyph glyph-name="sarauethai.alt3" 
d="M25 2265q-5 -18 -1.5 -34.5t13 -29t24.5 -19.5t33 -7t36 7t33 19.5t26 29t16 34.5q9 37 -12 63.5t-58 26.5q-18 0 -36 -7t-33 -19.5t-26 -29t-15 -34.5zM-1118 2224h991q3 9 2 21t2 24q11 49 39.5 93t68 77t87 52.5t96.5 19.5t88.5 -19.5t65.5 -52.5t35.5 -77t-1.5 -93
t-39 -93t-67.5 -77t-87 -52t-96.5 -19h-1323z" />
    <glyph glyph-name="saraueethai.alt3" 
d="M-1118 2228h835l58 266h209l-58 -266h160l57 266h209l-98 -462h-1511z" />
    <glyph glyph-name="maiekthai.alt4" 
d="M250 2904h188l-90 -426h-188z" />
    <glyph glyph-name="maithothai.alt4" 
d="M-229 2482l57 262h-147l32 164h328l-49 -254q78 0 141.5 18t111 51t78 80t42.5 105h213q-17 -83 -69.5 -158.5t-134 -134t-189 -94.5t-234.5 -39h-180z" />
    <glyph glyph-name="maitrithai.alt4" 
d="M94 2482q4 20 9 52t3 62.5t-13.5 52.5t-39.5 22q-24 0 -45.5 -19t-38 -47.5t-29 -61.5t-18.5 -61h-135q6 28 9 61t-1.5 61.5t-17.5 47.5t-39 19q-29 0 -50.5 -22t-36 -52.5t-23.5 -62.5t-13 -52h-172q21 102 54.5 170.5t74.5 110t87.5 59t94.5 17.5q40 0 67.5 -14
t44.5 -37.5t24.5 -54t7.5 -62.5q12 34 32.5 64.5t49 53.5t64.5 36.5t79 13.5q41 0 74 -10.5t53.5 -34.5t27.5 -64t-4 -100q25 9 51.5 31.5t50.5 55t42.5 72t27.5 82.5h185q-14 -63 -48 -127t-83 -118t-110 -93t-128 -51h-168z" />
    <glyph glyph-name="maichattawathai.alt4" 
d="M397 2707l-49 -229h-188l49 229h-246l37 164h246l45 217h188l-45 -217h254l-37 -164h-254z" />
    <glyph glyph-name="maiekthai.alt5" 
d="M-213 2904h205l-90 -422h-205z" />
    <glyph glyph-name="maithothai.alt5" 
d="M-709 2482l58 258h-144l33 164h352l-53 -254q80 0 138.5 17.5t99 50.5t65.5 80t37 106h246q-17 -81 -65 -157.5t-127 -135t-188 -94t-247 -35.5h-205z" />
    <glyph glyph-name="maitrithai.alt5" 
d="M-217 2482q4 20 9 52t3 62.5t-13.5 52.5t-39.5 22q-26 0 -48.5 -19t-39.5 -47.5t-29 -61.5t-18 -61h-135q6 28 9 61t-1.5 61.5t-18 47.5t-39.5 19q-29 0 -50 -22t-35.5 -52.5t-23.5 -62.5t-13 -52h-172q21 102 54.5 170.5t74.5 110t87.5 59t94.5 17.5q40 0 67 -14
t44 -37.5t24.5 -54t7.5 -62.5q12 34 33.5 64.5t50.5 53.5t66 36.5t80 13.5q41 0 74 -10.5t53.5 -34.5t27.5 -64t-4 -100q23 9 49 31.5t49 55t42 72t28 82.5h184q-14 -63 -47.5 -127t-82 -118t-108.5 -93t-126 -51h-168z" />
    <glyph glyph-name="maichattawathai.alt5" 
d="M-156 2707l-49 -233h-184l49 233h-250l37 164h250l45 217h184l-45 -217h250l-37 -164h-250z" />
    <glyph glyph-name="sarauthai.alt6" 
d="M-795 -909l103 467h-131l37 176h352l-139 -643h-222z" />
    <glyph glyph-name="sarauuthai.alt6" 
d="M-1143 -266h352l-65 -295q-37 -172 111 -172q147 0 184 172l65 295h222l-66 -295q-15 -71 -48 -135t-87 -112t-130 -76.5t-177 -28.5q-102 0 -165.5 28.5t-96.5 76.5t-39 112t6 135l28 119h-131z" />
    <glyph glyph-name="phinthuthai.alt6" 
d="M-831 -438q7 35 25.5 66t44 53.5t56 35.5t62.5 13q35 0 63.5 -13t47 -35.5t25.5 -53.5t-1 -66q-8 -32 -26.5 -60.5t-45.5 -49.5t-60 -33.5t-69 -12.5q-32 0 -58 12.5t-43 33.5t-23 49.5t2 60.5z" />
    <glyph glyph-name="sarauthai.alt7" 
d="M-807 -909l102 467h-131l37 176h353l-140 -643h-221z" />
    <glyph glyph-name="sarauuthai.alt7" 
d="M-1319 -266h352l-65 -295q-37 -172 110 -172q148 0 185 172l65 295h221l-65 -295q-15 -71 -48 -135t-87 -112t-130 -76.5t-177 -28.5q-102 0 -165.5 28.5t-96.5 76.5t-39 112t6 135l28 119h-131z" />
    <glyph glyph-name="phinthuthai.alt7" 
d="M-778 -438q7 35 25.5 66t44 53.5t56 35.5t62.5 13q35 0 63.5 -13t47 -35.5t25.5 -53.5t-1 -66q-8 -32 -26.5 -60.5t-45.5 -49.5t-60 -33.5t-68 -12.5q-32 0 -58.5 12.5t-43.5 33.5t-23 49.5t2 60.5z" />
    <glyph glyph-name="maihanakatthai.alt8" 
d="M606 2032h-1278l70 331h209l-29 -135h1065z" />
    <glyph glyph-name="maiekthai.alt8" 
d="M-176 3068h201l-86 -422h-205z" />
    <glyph glyph-name="maithothai.alt8" 
d="M-532 2646l53 258h-144l37 164h353l-54 -254q80 0 138 17.5t97.5 50.5t64 80t36.5 106h250q-18 -81 -67 -157.5t-128 -135t-187 -94t-245 -35.5h-204z" />
    <glyph glyph-name="maitrithai.alt8" 
d="M61 2646q5 20 9.5 52t2.5 62t-13.5 52t-39.5 22q-24 0 -45.5 -19t-38 -47.5t-29 -61t-18.5 -60.5h-135q6 28 9 60.5t-1 61t-17.5 47.5t-39.5 19q-29 0 -50.5 -22t-36 -52t-23.5 -62t-13 -52h-172q22 101 54.5 169.5t73 110t86 59t93.5 17.5q40 0 67.5 -14t45 -37.5
t25.5 -54t10 -62.5q11 34 31 64.5t48.5 53.5t64 36.5t77.5 13.5t75.5 -10t54.5 -34.5t27.5 -64.5t-5.5 -100q26 9 52.5 32t50 55t42 72t27.5 83h184q-14 -63 -47.5 -127t-81.5 -118t-108 -93t-128 -51h-168z" />
    <glyph glyph-name="maichattawathai.alt8" 
d="M82 2879l-49 -233h-180l49 233h-250l33 164h249l50 217h180l-49 -217h254l-33 -164h-254z" />
    <glyph glyph-name="saraithai.alt9" 
d="M-913 2228h1208l-41 -196h-1307z" />
    <glyph glyph-name="saraiithai.alt9" 
d="M-913 2228h999l57 266h209l-98 -462h-1307z" />
    <glyph glyph-name="sarauethai.alt9" 
d="M25 2265q-5 -18 -1.5 -34.5t13 -29t24.5 -19.5t33 -7t36 7t33 19.5t26 29t16 34.5q9 37 -12 63.5t-58 26.5q-18 0 -36 -7t-33 -19.5t-26 -29t-15 -34.5zM-913 2224h786q3 9 2 21t2 24q11 49 39.5 93t68 77t87 52.5t96.5 19.5t88.5 -19.5t65.5 -52.5t35.5 -77t-1.5 -93
t-39 -93t-67.5 -77t-87 -52t-96.5 -19h-17h-1102z" />
    <glyph glyph-name="saraueethai.alt9" 
d="M-913 2228h630l58 266h209l-58 -266h160l57 266h209l-98 -462h-1307z" />
    <glyph glyph-name="saraileftthai" 
d="M-958 2228h823l-41 -196h-922z" />
    <glyph glyph-name="saraileftthai" unicode="&#xf701;" 
d="M-958 2228h823l-41 -196h-922z" />
    <glyph glyph-name="saraiileftthai" 
d="M-958 2228h614l57 266h209l-98 -462h-922z" />
    <glyph glyph-name="saraiileftthai" unicode="&#xf702;" 
d="M-958 2228h614l57 266h209l-98 -462h-922z" />
    <glyph glyph-name="saraueleftthai" horiz-adv-x="-4" 
d="M-434 2269q-6 -37 15 -63.5t59 -26.5q18 0 36 7t32.5 19.5t24.5 29t13 34.5q9 37 -11.5 63.5t-58.5 26.5q-18 0 -36 -7t-33 -19.5t-26 -29t-15 -34.5zM-958 2228h373q-8 55 15.5 106.5t66 91.5t98.5 64.5t114 24.5q49 0 88.5 -19.5t65.5 -52.5t35.5 -77t-0.5 -93
q-9 -49 -37.5 -93t-68.5 -77t-88 -52t-97 -19h-705z" />
    <glyph glyph-name="saraueleftthai" unicode="&#xf703;" horiz-adv-x="-4" 
d="M-434 2269q-6 -37 15 -63.5t59 -26.5q18 0 36 7t32.5 19.5t24.5 29t13 34.5q9 37 -11.5 63.5t-58.5 26.5q-18 0 -36 -7t-33 -19.5t-26 -29t-15 -34.5zM-958 2228h373q-8 55 15.5 106.5t66 91.5t98.5 64.5t114 24.5q49 0 88.5 -19.5t65.5 -52.5t35.5 -77t-0.5 -93
q-9 -49 -37.5 -93t-68.5 -77t-88 -52t-97 -19h-705z" />
    <glyph glyph-name="saraueeleftthai" 
d="M-955 2228h328l58 266h168l-58 -266h156l57 266h168l-98 -462h-922z" />
    <glyph glyph-name="saraueeleftthai" unicode="&#xf704;" 
d="M-955 2228h328l58 266h168l-58 -266h156l57 266h168l-98 -462h-922z" />
    <glyph glyph-name="maieklowleftthai" 
d="M-266 2454h184l-90 -422h-184z" />
    <glyph glyph-name="maieklowleftthai" unicode="&#xf705;" 
d="M-266 2454h184l-90 -422h-184z" />
    <glyph glyph-name="maitholowleftthai" 
d="M-807 2032l53 258h-147l37 164h332l-54 -254q81 0 145.5 18.5t112 51.5t77.5 80t42 104h209q-15 -82 -66.5 -157.5t-133 -134t-190 -94t-237.5 -36.5h-180z" />
    <glyph glyph-name="maitholowleftthai" unicode="&#xf706;" 
d="M-807 2032l53 258h-147l37 164h332l-54 -254q81 0 145.5 18.5t112 51.5t77.5 80t42 104h209q-15 -82 -66.5 -157.5t-133 -134t-190 -94t-237.5 -36.5h-180z" />
    <glyph glyph-name="maitrilowleftthai" 
d="M-492 2023q3 20 7.5 52t3.5 62.5t-11 52.5t-36 22q-25 0 -46 -19t-37.5 -47.5t-28 -61.5t-15.5 -61h-127q4 28 6.5 61t-2 61.5t-17 47.5t-36.5 19q-26 0 -45.5 -22t-33 -52.5t-21.5 -62.5t-11 -52h-164q21 102 53 170.5t71 110t82.5 59t88.5 17.5q37 0 62 -14t40.5 -37.5
t22 -54t6.5 -62.5q12 34 32.5 64.5t48.5 53.5t62 36.5t74 13.5q34 0 64 -10t50 -34.5t28 -64.5t-3 -100q23 9 49 32t49.5 55t42 72t27.5 83h168q-12 -63 -43.5 -127t-77.5 -118.5t-103 -93.5t-120 -51h-160z" />
    <glyph glyph-name="maitrilowleftthai" unicode="&#xf707;" 
d="M-492 2023q3 20 7.5 52t3.5 62.5t-11 52.5t-36 22q-25 0 -46 -19t-37.5 -47.5t-28 -61.5t-15.5 -61h-127q4 28 6.5 61t-2 61.5t-17 47.5t-36.5 19q-26 0 -45.5 -22t-33 -52.5t-21.5 -62.5t-11 -52h-164q21 102 53 170.5t71 110t82.5 59t88.5 17.5q37 0 62 -14t40.5 -37.5
t22 -54t6.5 -62.5q12 34 32.5 64.5t48.5 53.5t62 36.5t74 13.5q34 0 64 -10t50 -34.5t28 -64.5t-3 -100q23 9 49 32t49.5 55t42 72t27.5 83h168q-12 -63 -43.5 -127t-77.5 -118.5t-103 -93.5t-120 -51h-160z" />
    <glyph glyph-name="maichattawalowleftthai" 
d="M-369 2261l-49 -233h-184l49 233h-250l33 164h250l49 217h184l-49 -217h258l-33 -164h-258z" />
    <glyph glyph-name="maichattawalowleftthai" unicode="&#xf708;" 
d="M-369 2261l-49 -233h-184l49 233h-250l33 164h250l49 217h184l-49 -217h258l-33 -164h-258z" />
    <glyph glyph-name="thanthakhatlowleftthai" 
d="M-86 2286q-80 0 -144 -18t-112 -51t-78.5 -80t-42.5 -105h-213q17 81 69 156.5t133.5 134t189 94t235.5 37.5z" />
    <glyph glyph-name="thanthakhatlowleftthai" unicode="&#xf709;" 
d="M-86 2286q-80 0 -144 -18t-112 -51t-78.5 -80t-42.5 -105h-213q17 81 69 156.5t133.5 134t189 94t235.5 37.5z" />
    <glyph glyph-name="maieklowrightthai" 
d="M106 2454h238l-90 -422h-238z" />
    <glyph glyph-name="maieklowrightthai" unicode="&#xf70a;" 
d="M106 2454h238l-90 -422h-238z" />
    <glyph glyph-name="maitholowrightthai" 
d="M-348 2028l53 258h-143l37 163h352l-57 -254q78 0 136 18.5t99.5 52t66.5 80t37 103.5h250q-18 -81 -67 -157t-128 -134.5t-187 -94t-244 -35.5h-205z" />
    <glyph glyph-name="maitholowrightthai" unicode="&#xf70b;" 
d="M-348 2028l53 258h-143l37 163h352l-57 -254q78 0 136 18.5t99.5 52t66.5 80t37 103.5h250q-18 -81 -67 -157t-128 -134.5t-187 -94t-244 -35.5h-205z" />
    <glyph glyph-name="maitrilowrightthai" 
d="M-94 2028q3 16 7 39.5t7 49.5t3 52t-5 46.5t-17 33t-32 12.5q-31 0 -57.5 -24t-47 -59t-35 -75.5t-20.5 -74.5h-147q6 34 8.5 74.5t-2.5 75.5t-20 59t-44 24q-22 0 -39.5 -12.5t-32 -33t-25.5 -46.5t-19.5 -52t-14 -49.5t-8.5 -39.5h-196q26 123 64.5 206t85.5 133.5
t99.5 72.5t106.5 22q45 0 76 -17.5t49.5 -46t26 -64.5t4.5 -73q15 38 39.5 74.5t58 64.5t75.5 45t93 17q43 0 76.5 -18.5t54.5 -51t28 -77.5t-4 -99q28 9 58 35t57.5 63t49 83t32.5 97h201q-15 -74 -52.5 -150t-91 -141.5t-121.5 -112.5t-145 -62h-184z" />
    <glyph glyph-name="maitrilowrightthai" unicode="&#xf70c;" 
d="M-94 2028q3 16 7 39.5t7 49.5t3 52t-5 46.5t-17 33t-32 12.5q-31 0 -57.5 -24t-47 -59t-35 -75.5t-20.5 -74.5h-147q6 34 8.5 74.5t-2.5 75.5t-20 59t-44 24q-22 0 -39.5 -12.5t-32 -33t-25.5 -46.5t-19.5 -52t-14 -49.5t-8.5 -39.5h-196q26 123 64.5 206t85.5 133.5
t99.5 72.5t106.5 22q45 0 76 -17.5t49.5 -46t26 -64.5t4.5 -73q15 38 39.5 74.5t58 64.5t75.5 45t93 17q43 0 76.5 -18.5t54.5 -51t28 -77.5t-4 -99q28 9 58 35t57.5 63t49 83t32.5 97h201q-15 -74 -52.5 -150t-91 -141.5t-121.5 -112.5t-145 -62h-184z" />
    <glyph glyph-name="maichattawalowrightthai" 
d="M303 2261l-49 -229h-213l49 229h-250l37 172h250l45 213h213l-45 -213h254l-37 -172h-254z" />
    <glyph glyph-name="maichattawalowrightthai" unicode="&#xf70d;" 
d="M303 2261l-49 -229h-213l49 229h-250l37 172h250l45 213h213l-45 -213h254l-37 -172h-254z" />
    <glyph glyph-name="thanthakhatlowrightthai" 
d="M487 2310q-89 0 -160 -20t-123.5 -56.5t-86.5 -89t-47 -116.5h-242q20 93 75 177t143 148t209 101.5t273 39.5z" />
    <glyph glyph-name="thanthakhatlowrightthai" unicode="&#xf70e;" 
d="M487 2310q-89 0 -160 -20t-123.5 -56.5t-86.5 -89t-47 -116.5h-242q20 93 75 177t143 148t209 101.5t273 39.5z" />
    <glyph glyph-name="maihanakatleftthai" 
d="M606 2032h-1278l70 331h209l-29 -135h1065z" />
    <glyph glyph-name="maihanakatleftthai" unicode="&#xf710;" 
d="M606 2032h-1278l70 331h209l-29 -135h1065z" />
    <glyph glyph-name="nikhahitleftthai" 
d="M-623 2331q12 55 43.5 103.5t75 84.5t95.5 57t106 21q55 0 99 -21t72.5 -57t39 -84.5t-1.5 -103.5q-11 -54 -41.5 -102t-74 -83.5t-96.5 -56.5t-108 -21q-54 0 -97 21t-71.5 56.5t-40 83.5t-0.5 102zM-467 2331q-5 -22 0 -41.5t17 -34t30 -23t39 -8.5q23 0 45 8.5
t39.5 23t29.5 34t17 41.5q6 23 2.5 43t-15.5 35t-31 23.5t-42 8.5q-21 0 -42 -8.5t-39 -23.5t-31 -35t-19 -43z" />
    <glyph glyph-name="nikhahitleftthai" unicode="&#xf711;" 
d="M-623 2331q12 55 43.5 103.5t75 84.5t95.5 57t106 21q55 0 99 -21t72.5 -57t39 -84.5t-1.5 -103.5q-11 -54 -41.5 -102t-74 -83.5t-96.5 -56.5t-108 -21q-54 0 -97 21t-71.5 56.5t-40 83.5t-0.5 102zM-467 2331q-5 -22 0 -41.5t17 -34t30 -23t39 -8.5q23 0 45 8.5
t39.5 23t29.5 34t17 41.5q6 23 2.5 43t-15.5 35t-31 23.5t-42 8.5q-21 0 -42 -8.5t-39 -23.5t-31 -35t-19 -43z" />
    <glyph glyph-name="maitaikhuleftthai" 
d="M-823 2388q-5 -34 -7 -65.5t4.5 -56t24 -39.5t51.5 -15t58.5 17t42.5 47t31 70.5t24 86.5h176q-11 -46 -17 -86.5t-1.5 -70.5t22 -47t54.5 -17q34 0 58.5 18t42 48t27.5 70t15 85h205q-18 -125 -55 -206.5t-85.5 -129.5t-105.5 -65.5t-115 -12.5q-46 3 -79 18.5t-55 38
t-35 48.5t-19 51q-14 -26 -38.5 -54t-58 -50.5t-74.5 -37t-87 -14.5q-77 0 -127 28.5t-76 78t-29.5 115t11.5 139.5q23 111 70.5 182t106.5 112.5t123.5 57.5t121.5 16h753l-41 -188h-745q-40 0 -69.5 -15t-50.5 -39t-33.5 -55t-18.5 -63z" />
    <glyph glyph-name="maitaikhuleftthai" unicode="&#xf712;" 
d="M-823 2388q-5 -34 -7 -65.5t4.5 -56t24 -39.5t51.5 -15t58.5 17t42.5 47t31 70.5t24 86.5h176q-11 -46 -17 -86.5t-1.5 -70.5t22 -47t54.5 -17q34 0 58.5 18t42 48t27.5 70t15 85h205q-18 -125 -55 -206.5t-85.5 -129.5t-105.5 -65.5t-115 -12.5q-46 3 -79 18.5t-55 38
t-35 48.5t-19 51q-14 -26 -38.5 -54t-58 -50.5t-74.5 -37t-87 -14.5q-77 0 -127 28.5t-76 78t-29.5 115t11.5 139.5q23 111 70.5 182t106.5 112.5t123.5 57.5t121.5 16h753l-41 -188h-745q-40 0 -69.5 -15t-50.5 -39t-33.5 -55t-18.5 -63z" />
    <glyph glyph-name="maiekupperleftthai" 
d="M-166 3068h201l-86 -422h-205z" />
    <glyph glyph-name="maiekupperleftthai" unicode="&#xf713;" 
d="M-166 3068h201l-86 -422h-205z" />
    <glyph glyph-name="maithoupperleftthai" 
d="M-532 2646l53 258h-144l37 164h353l-54 -254q80 0 138 17.5t97.5 50.5t64 80t36.5 106h250q-18 -81 -67 -157.5t-128 -135t-187 -94t-245 -35.5h-204z" />
    <glyph glyph-name="maithoupperleftthai" unicode="&#xf714;" 
d="M-532 2646l53 258h-144l37 164h353l-54 -254q80 0 138 17.5t97.5 50.5t64 80t36.5 106h250q-18 -81 -67 -157.5t-128 -135t-187 -94t-245 -35.5h-204z" />
    <glyph glyph-name="maitriupperleftthai" 
d="M-180 2646q4 20 9 52t3 62t-13.5 52t-39.5 22q-26 0 -48.5 -19t-39.5 -47.5t-29 -61t-18 -60.5h-136q6 28 9 60.5t-1 61t-17.5 47.5t-39.5 19q-29 0 -50 -22t-35.5 -52t-23.5 -62t-14 -52h-172q22 101 55 169.5t73.5 110t86 59t93.5 17.5q40 0 67 -14t44.5 -37.5
t25.5 -54t10 -62.5q11 34 31.5 64.5t49 53.5t65 36.5t79.5 13.5q42 0 75 -10t53.5 -34.5t27.5 -64.5t-4 -100q24 9 50 32t49 55t41.5 72t27.5 83h184q-14 -63 -47 -127t-80.5 -118t-107 -93t-125.5 -51h-168z" />
    <glyph glyph-name="maitriupperleftthai" unicode="&#xf715;" 
d="M-180 2646q4 20 9 52t3 62t-13.5 52t-39.5 22q-26 0 -48.5 -19t-39.5 -47.5t-29 -61t-18 -60.5h-136q6 28 9 60.5t-1 61t-17.5 47.5t-39.5 19q-29 0 -50 -22t-35.5 -52t-23.5 -62t-14 -52h-172q22 101 55 169.5t73.5 110t86 59t93.5 17.5q40 0 67 -14t44.5 -37.5
t25.5 -54t10 -62.5q11 34 31.5 64.5t49 53.5t65 36.5t79.5 13.5q42 0 75 -10t53.5 -34.5t27.5 -64.5t-4 -100q24 9 50 32t49 55t41.5 72t27.5 83h184q-14 -63 -47 -127t-80.5 -118t-107 -93t-125.5 -51h-168z" />
    <glyph glyph-name="maichattawaupperleftthai" 
d="M2 2879l-50 -233h-184l50 233h-251l33 164h253l46 217h184l-46 -217h247l-33 -164h-249z" />
    <glyph glyph-name="maichattawaupperleftthai" unicode="&#xf716;" 
d="M2 2879l-50 -233h-184l50 233h-251l33 164h253l46 217h184l-46 -217h247l-33 -164h-249z" />
    <glyph glyph-name="thanthakhatupperleftthai" 
d="M287 2728q-80 0 -143.5 -18.5t-110.5 -52t-77 -81.5t-42 -106h-213q17 83 69 159.5t133 135t188 94t233 37.5z" />
    <glyph glyph-name="thanthakhatupperleftthai" unicode="&#xf717;" 
d="M287 2728q-80 0 -143.5 -18.5t-110.5 -52t-77 -81.5t-42 -106h-213q17 83 69 159.5t133 135t188 94t233 37.5z" />
    <glyph glyph-name="maiekupperleftthai.alt11" 
d="M-266 3088h201l-86 -422h-205z" />
    <glyph glyph-name="maichattawaupperleftthai.alt11" 
d="M-98 2889l-50 -233h-184l50 233h-251l33 164h253l46 217h184l-46 -217h247l-33 -164h-249z" />
    </font>
</defs>
</svg>
